<svg width="476" height="473" viewBox="0 0 476 473" fill="none" xmlns="http://www.w3.org/2000/svg">
<path d="M0 45C0 20.1472 20.1472 0 45 0H431C455.853 0 476 20.1472 476 45V428C476 452.853 455.853 473 431 473H45C20.1472 473 0 452.853 0 428V45Z" fill="#D4D4DF" fill-opacity="0.27"/>
<path d="M127.438 319.009V320.109C127.438 320.209 127.438 320.409 127.438 320.509C127.438 322.309 127.438 324.109 127.438 325.909C127.438 326.009 127.438 326.209 127.438 326.309C127.438 328.109 127.337 329.909 127.337 331.709C127.337 331.909 127.337 332.009 127.337 332.209C127.337 334.109 127.238 335.909 127.138 337.609C127.138 337.809 127.138 337.909 127.138 338.109C127.038 340.009 126.937 341.909 126.837 343.609C126.837 343.809 126.837 343.909 126.837 344.009C126.737 345.509 126.637 346.909 126.537 348.309C126.537 348.509 126.537 348.609 126.537 348.809C126.437 350.409 126.238 351.809 126.138 353.209C126.138 353.409 126.137 353.509 126.037 353.709C125.937 354.509 125.837 355.409 125.737 356.109C125.337 358.809 123.537 360.809 120.837 361.009C118.737 361.209 116.438 361.309 113.938 361.409C113.438 361.409 112.937 361.409 112.337 361.509C110.137 361.609 107.938 361.609 105.638 361.709C105.138 361.709 104.637 361.709 104.037 361.709C103.837 361.709 103.638 361.709 103.438 361.709C101.837 361.709 100.138 361.709 98.4375 361.709C97.9375 361.709 97.3375 361.709 96.8375 361.709C95.2375 361.709 93.6375 361.609 92.0375 361.609C91.1375 361.609 90.3375 361.509 89.4375 361.509C89.2375 361.509 89.0375 361.509 88.7375 361.509C86.5375 361.409 84.3375 361.309 82.3375 361.109C79.6375 360.909 78.1375 358.909 77.7375 356.209C77.6375 355.409 77.5375 354.709 77.4375 353.809C77.4375 353.709 77.4375 353.509 77.3375 353.309C77.1375 351.909 77.0375 350.409 76.9375 348.709C76.9375 348.609 76.9375 348.409 76.9375 348.309C76.9375 348.309 76.9375 348.309 76.9375 348.209C76.8375 346.909 76.7375 345.509 76.6375 344.109C76.6375 344.009 76.6375 343.809 76.6375 343.709C76.5375 341.909 76.4375 340.109 76.3375 338.209C76.3375 338.109 76.3375 337.909 76.3375 337.809C76.2375 336.009 76.2375 334.209 76.1375 332.309C76.1375 332.209 76.1375 332.009 76.1375 331.909C76.1375 330.109 76.0375 328.309 76.0375 326.509C76.0375 326.409 76.0375 326.209 76.0375 326.109C76.0375 324.309 76.0375 322.509 75.9375 320.609V320.209C75.9375 318.509 75.9375 316.709 75.9375 315.009C75.9375 314.909 75.9375 314.709 75.9375 314.609C75.9375 313.009 75.9375 311.309 75.9375 309.709C75.9375 309.609 75.9375 309.409 75.9375 309.309C75.9375 307.609 75.9375 305.909 76.0375 304.109C76.0375 304.009 76.0375 303.809 76.0375 303.709C76.0375 301.709 76.1375 299.709 76.1375 297.709C76.1375 297.609 76.1375 297.409 76.1375 297.309C76.5375 275.809 77.3375 257.709 77.3375 257.709C77.3375 255.009 79.5375 252.809 82.2375 252.809H120.638C123.338 252.809 125.537 255.009 125.537 257.709C125.537 257.709 126.537 275.909 127.037 297.309V297.709C127.037 299.709 127.138 301.709 127.138 303.709C127.138 303.809 127.138 304.009 127.138 304.109C127.138 305.809 127.237 307.509 127.237 309.309C127.237 309.409 127.237 309.609 127.237 309.709C127.237 311.309 127.237 313.009 127.237 314.609C127.237 314.709 127.237 314.909 127.237 315.009C127.437 316.209 127.438 317.609 127.438 319.009Z" fill="#141414"/>
<g opacity="0.3">
<path d="M127.437 319.009V320.109C127.437 320.209 127.437 320.409 127.437 320.509C127.437 322.309 127.437 324.109 127.437 325.909C127.437 326.009 127.437 326.209 127.437 326.309C127.437 328.109 127.337 329.909 127.337 331.709C127.337 331.909 127.337 332.009 127.337 332.209C127.337 334.109 127.237 335.909 127.137 337.609C127.137 337.809 127.137 337.909 127.137 338.109C127.037 340.009 126.937 341.909 126.837 343.609C126.837 343.809 126.837 343.909 126.837 344.009C126.737 345.509 126.637 346.909 126.537 348.309C126.537 348.509 126.537 348.609 126.537 348.809C126.437 350.409 126.237 351.809 126.137 353.209C126.137 353.409 126.137 353.509 126.037 353.709C125.937 354.509 125.837 355.409 125.737 356.109C125.337 358.809 123.537 360.809 120.837 361.009C118.737 361.209 116.437 361.309 113.937 361.409C113.437 361.409 112.937 361.409 112.337 361.509C110.137 361.609 107.937 361.609 105.637 361.709C105.137 361.709 104.637 361.709 104.037 361.709C103.837 361.709 103.637 361.709 103.437 361.709C101.837 361.709 100.137 361.709 98.4371 361.709C97.9371 361.709 97.3371 361.709 96.8371 361.709C95.2371 361.709 93.6371 361.609 92.0371 361.609C92.1371 361.609 92.3371 361.509 92.4371 361.509C93.8371 361.109 95.2371 360.609 96.5371 360.109C97.0371 359.909 97.5371 359.709 98.0371 359.509C100.037 358.609 101.937 357.709 103.637 356.709C104.137 356.409 104.637 356.109 105.137 355.709C107.637 354.109 109.637 352.309 111.437 350.509C111.937 349.909 112.437 349.409 112.937 348.809C114.837 346.509 116.237 344.209 117.337 341.909C117.437 341.809 117.437 341.709 117.537 341.609C118.537 339.609 119.137 337.609 119.637 335.809C119.637 335.709 119.737 335.609 119.737 335.509C120.337 333.209 120.637 331.209 120.737 329.809C120.737 329.709 120.737 329.609 120.737 329.509C120.837 328.109 120.837 327.409 120.837 327.409L121.437 327.709L125.337 322.309L125.837 321.709L127.437 319.009Z" fill="black"/>
</g>
<g opacity="0.1">
<path d="M103.438 361.609C101.837 361.609 100.138 361.609 98.4375 361.609C97.9375 361.609 97.3375 361.609 96.8375 361.609C95.2375 361.609 93.6375 361.509 92.0375 361.509C91.1375 361.509 90.3375 361.409 89.4375 361.409C89.2375 361.409 89.0375 361.409 88.7375 361.409C86.5375 361.309 84.3375 361.209 82.3375 361.009C79.6375 360.809 78.1375 358.809 77.7375 356.109C77.6375 355.309 77.5375 354.609 77.4375 353.709C77.4375 353.609 77.4375 353.409 77.3375 353.209C77.1375 351.809 77.0375 350.309 76.9375 348.609C76.9375 348.509 76.9375 348.309 76.9375 348.209C76.9375 348.209 76.9375 348.209 76.9375 348.109C76.8375 346.809 76.7375 345.409 76.6375 344.009C76.6375 343.909 76.6375 343.709 76.6375 343.609C76.5375 341.809 76.4375 340.009 76.3375 338.109C76.3375 338.009 76.3375 337.809 76.3375 337.709C76.2375 335.909 76.2375 334.109 76.1375 332.209C76.1375 332.109 76.1375 331.909 76.1375 331.809C76.1375 330.009 76.0375 328.209 76.0375 326.409C76.0375 326.309 76.0375 326.109 76.0375 326.009C76.0375 324.209 76.0375 322.409 75.9375 320.509V320.109C75.9375 318.409 75.9375 316.609 75.9375 314.909C75.9375 314.809 75.9375 314.609 75.9375 314.509C75.9375 312.909 75.9375 311.209 75.9375 309.609C75.9375 309.509 75.9375 309.309 75.9375 309.209C75.9375 307.509 75.9375 305.809 76.0375 304.009C76.0375 303.909 76.0375 303.709 76.0375 303.609C76.0375 301.609 76.1375 299.609 76.1375 297.609C76.1375 297.509 76.1375 297.309 76.1375 297.209C76.5375 275.709 77.3375 257.609 77.3375 257.609C77.3375 254.909 79.5375 252.709 82.2375 252.709H86.0375C83.3375 252.709 81.1375 254.909 81.1375 257.609C81.1375 257.609 80.2375 275.709 79.9375 297.209C79.9375 297.309 79.9375 297.509 79.9375 297.609C79.9375 298.209 79.9375 298.809 79.9375 299.409C79.9375 299.509 79.9375 299.609 79.9375 299.709C79.9375 301.009 79.9375 302.209 79.8375 303.509C79.8375 303.609 79.8375 303.809 79.8375 303.909C79.8375 304.509 79.8375 305.209 79.8375 305.809C79.8375 305.909 79.8375 306.009 79.8375 306.109C79.8375 307.109 79.8375 308.009 79.8375 309.009C79.8375 309.109 79.8375 309.309 79.8375 309.409C79.8375 310.109 79.8375 310.709 79.8375 311.409C79.8375 311.509 79.8375 311.609 79.8375 311.709C79.8375 312.609 79.8375 313.409 79.8375 314.309C79.8375 314.409 79.8375 314.609 79.8375 314.709V316.709C79.8375 316.809 79.8375 316.909 79.8375 317.009C79.8375 318.009 79.8375 318.909 79.8375 319.909V320.309C79.8375 320.909 79.8375 321.609 79.8375 322.209C79.8375 322.309 79.8375 322.409 79.8375 322.509C79.8375 323.609 79.8375 324.609 79.8375 325.709C79.8375 325.809 79.8375 326.009 79.8375 326.109C79.8375 326.809 79.8375 327.409 79.8375 328.109C79.8375 328.209 79.8375 328.309 79.8375 328.409C79.8375 329.409 79.8375 330.509 79.9375 331.509C79.9375 331.609 79.9375 331.809 79.9375 331.909C79.9375 332.609 79.9375 333.209 80.0375 333.909C80.0375 334.009 80.0375 334.109 80.0375 334.209C80.0375 335.309 80.1375 336.309 80.1375 337.309C80.1375 337.409 80.1375 337.609 80.1375 337.709C80.1375 338.409 80.2375 339.009 80.2375 339.609C80.2375 339.709 80.2375 339.809 80.2375 339.909C80.3375 341.009 80.3375 342.109 80.4375 343.109C80.4375 343.209 80.4375 343.409 80.4375 343.509C80.4375 344.109 80.5375 344.809 80.5375 345.409C80.5375 345.509 80.5375 345.609 80.5375 345.809C80.5375 346.409 80.6375 347.009 80.6375 347.609C80.6375 347.609 80.6375 347.609 80.6375 347.709C80.6375 347.809 80.6375 348.009 80.6375 348.109C80.7375 348.809 80.7375 349.509 80.8375 350.209C80.8375 350.309 80.8375 350.409 80.8375 350.609C80.9375 351.309 80.9375 352.009 81.0375 352.709C81.0375 352.909 81.0375 353.009 81.1375 353.209C81.2375 353.909 81.3375 354.509 81.3375 355.109C81.3375 355.209 81.3375 355.309 81.3375 355.509C81.3375 355.509 81.3375 355.509 81.3375 355.609C81.7375 358.309 83.2375 360.309 85.9375 360.509C86.8375 360.609 87.6375 360.609 88.5375 360.709C88.7375 360.709 88.9375 360.709 89.2375 360.709C90.2375 360.809 91.2375 360.809 92.2375 360.809H92.3375C92.5375 360.809 92.7375 360.809 93.0375 360.809C94.2375 360.809 95.4375 360.909 96.6375 360.909C97.1375 360.909 97.7375 360.909 98.2375 360.909C98.9375 360.909 99.7375 360.909 100.438 360.909C100.938 360.909 101.537 360.909 102.037 360.909C102.637 361.609 103.037 361.609 103.438 361.609Z" fill="white"/>
</g>
<path d="M98.4375 361.609C97.9375 361.609 97.3375 361.609 96.8375 361.609V361.509C96.7375 361.009 96.6375 360.509 96.5375 360.009C95.0375 350.409 94.9375 328.709 94.9375 327.709H96.5375C96.5375 328.009 96.7375 349.809 98.1375 359.409C98.1375 360.209 98.3375 360.909 98.4375 361.609Z" fill="black"/>
<path d="M105.638 361.609C105.138 361.609 104.637 361.609 104.037 361.609C103.937 360.309 103.738 358.509 103.638 356.609C103.138 347.509 102.938 333.709 102.938 331.509H104.537C104.637 338.909 104.837 348.709 105.237 355.609C105.337 358.109 105.438 360.209 105.638 361.609Z" fill="black"/>
<path d="M113.938 361.409C113.438 361.409 112.938 361.409 112.338 361.509C111.938 358.709 111.638 354.709 111.438 350.409C111.138 342.109 111.138 333.109 111.138 331.509H112.738C112.738 336.609 112.738 343.009 112.938 348.709C113.138 353.909 113.438 358.609 113.938 361.409Z" fill="black"/>
<path d="M89.4371 361.409C89.2371 361.409 89.0371 361.409 88.7371 361.409C87.3371 353.109 87.0371 330.009 87.0371 329.009H87.6371C87.7371 329.209 88.0371 353.309 89.4371 361.409Z" fill="black"/>
<path d="M88.1375 356.909V357.209C82.3375 357.109 78.8375 354.809 77.5375 353.709C77.5375 353.609 77.5375 353.409 77.4375 353.209C78.5375 354.209 81.9375 356.809 88.1375 356.909Z" fill="black"/>
<path d="M88.0375 352.309V352.609C87.9375 352.609 87.9375 352.609 87.8375 352.609C81.3375 352.509 77.8375 349.609 76.9375 348.809C76.9375 348.709 76.9375 348.509 76.9375 348.409C76.9375 348.409 76.9375 348.409 76.9375 348.309C77.2375 348.609 80.6375 352.109 87.8375 352.209C87.9375 352.209 87.9375 352.309 88.0375 352.309Z" fill="black"/>
<path d="M87.3373 347.409V347.709C81.4373 347.609 78.0373 345.309 76.7373 344.209C76.7373 344.109 76.7373 343.909 76.7373 343.809C77.7373 344.709 81.1373 347.309 87.3373 347.409Z" fill="black"/>
<path d="M87.2375 341.509V341.809C81.1375 341.709 77.6375 339.209 76.4375 338.209C76.4375 338.109 76.4375 337.909 76.4375 337.809C77.2375 338.609 80.7375 341.409 87.2375 341.509Z" fill="black"/>
<path d="M87.1373 335.709V336.009C80.9373 335.909 77.3373 333.309 76.2373 332.309C76.2373 332.209 76.2373 332.009 76.2373 331.909C76.9373 332.609 80.4373 335.609 87.1373 335.709Z" fill="black"/>
<path d="M87.0367 329.809V330.109C80.8367 330.009 77.3367 327.409 76.1367 326.409C76.1367 326.309 76.1367 326.109 76.1367 326.009C76.8367 326.809 80.3367 329.709 87.0367 329.809Z" fill="black"/>
<path d="M86.9367 323.909V324.209C80.7367 324.109 77.2367 321.509 76.1367 320.609V320.209C76.8367 320.909 80.3367 323.809 86.9367 323.909Z" fill="black"/>
<path d="M87.0371 318.409V318.709C80.5371 318.609 77.0371 315.809 76.0371 314.909C76.0371 314.809 76.0371 314.609 76.0371 314.509C76.4371 314.909 79.9371 318.309 87.0371 318.409Z" fill="black"/>
<path d="M87.0371 313.009V313.309C80.5371 313.209 76.9371 310.409 76.0371 309.509C76.0371 309.409 76.0371 309.209 76.0371 309.109C76.3371 309.409 79.8371 312.909 87.0371 313.009Z" fill="black"/>
<path d="M86.9367 307.309V307.609C80.7367 307.509 77.2367 305.009 76.1367 304.009C76.1367 303.909 76.1367 303.709 76.1367 303.609C76.9367 304.309 80.4367 307.209 86.9367 307.309Z" fill="black"/>
<path d="M86.9373 300.809V301.109C81.0373 301.009 77.5373 298.709 76.2373 297.609C76.2373 297.509 76.2373 297.309 76.2373 297.209C77.2373 298.109 80.7373 300.709 86.9373 300.809Z" fill="black"/>
<path d="M126.138 353.209C126.138 353.409 126.138 353.509 126.038 353.709C124.738 354.809 121.338 357.109 115.338 357.209V356.909C121.738 356.809 125.138 354.109 126.138 353.209Z" fill="black"/>
<path d="M126.537 348.409C126.537 348.609 126.537 348.709 126.537 348.909C125.337 349.909 121.637 352.509 115.438 352.609V352.309C122.137 352.109 125.837 349.109 126.537 348.409Z" fill="black"/>
<path d="M126.938 343.709C126.938 343.909 126.938 344.009 126.938 344.109C125.738 345.109 122.238 347.609 116.138 347.709V347.409C122.538 347.309 126.038 344.509 126.938 343.709Z" fill="black"/>
<path d="M127.138 337.709C127.138 337.909 127.138 338.009 127.138 338.209C126.138 339.109 123.038 341.509 117.338 341.909C116.938 341.909 116.538 341.909 116.138 341.909V341.609C116.638 341.609 117.038 341.609 117.438 341.509C123.638 341.009 126.738 338.109 127.138 337.709Z" fill="black"/>
<path d="M127.338 331.809C127.338 332.009 127.338 332.109 127.338 332.309C126.538 333.009 124.038 335.009 119.638 335.809C118.638 336.009 117.538 336.109 116.338 336.109V335.809C117.538 335.809 118.738 335.709 119.738 335.509C124.738 334.509 127.238 331.909 127.338 331.809Z" fill="black"/>
<path d="M127.438 326.009C127.438 326.109 127.438 326.309 127.438 326.409C126.738 327.109 124.538 328.809 120.738 329.709C119.538 330.009 118.038 330.209 116.538 330.209V329.909C118.138 329.909 119.538 329.709 120.838 329.409C125.038 328.409 127.138 326.309 127.438 326.009Z" fill="black"/>
<path d="M127.438 320.109C127.438 320.209 127.438 320.409 127.438 320.509C127.038 320.809 126.338 321.409 125.238 322.109C123.438 323.109 120.538 324.209 116.538 324.309V324.009C120.938 323.909 123.938 322.609 125.638 321.509C126.638 320.809 127.238 320.309 127.438 320.109Z" fill="black"/>
<path d="M127.438 314.909C126.538 315.709 123.037 318.609 116.438 318.709V318.409C123.938 318.309 127.438 314.509 127.438 314.509C127.438 314.609 127.438 314.709 127.438 314.909Z" fill="black"/>
<path d="M127.438 309.509C126.538 310.309 123.037 313.209 116.438 313.309V313.009C123.938 312.909 127.438 309.109 127.438 309.109C127.438 309.309 127.438 309.409 127.438 309.509Z" fill="black"/>
<path d="M127.338 304.009C126.238 305.009 122.738 307.509 116.538 307.609V307.309C123.038 307.209 126.538 304.309 127.338 303.609C127.338 303.709 127.338 303.809 127.338 304.009Z" fill="black"/>
<path d="M127.238 297.609C125.938 298.709 122.438 301.009 116.638 301.109V300.809C122.738 300.709 126.238 298.209 127.238 297.209V297.609Z" fill="black"/>
<path d="M347.538 319.009V320.109C347.538 320.209 347.538 320.409 347.538 320.509C347.538 322.309 347.538 324.109 347.538 325.909C347.538 326.009 347.538 326.209 347.538 326.309C347.538 328.109 347.638 329.909 347.638 331.709C347.638 331.909 347.638 332.009 347.638 332.209C347.638 334.109 347.738 335.909 347.838 337.609C347.838 337.809 347.838 337.909 347.838 338.109C347.938 340.009 348.038 341.909 348.138 343.609C348.138 343.809 348.138 343.909 348.138 344.009C348.238 345.509 348.338 346.909 348.438 348.309C348.438 348.509 348.438 348.609 348.438 348.809C348.538 350.409 348.738 351.809 348.838 353.209C348.838 353.409 348.838 353.509 348.938 353.709C349.038 354.509 349.138 355.409 349.238 356.109C349.638 358.809 351.438 360.809 354.138 361.009C356.238 361.209 358.538 361.309 361.038 361.409C361.538 361.409 362.038 361.409 362.638 361.509C364.838 361.609 367.038 361.609 369.338 361.709C369.838 361.709 370.338 361.709 370.938 361.709C371.138 361.709 371.338 361.709 371.538 361.709C373.138 361.709 374.838 361.709 376.538 361.709C377.038 361.709 377.638 361.709 378.138 361.709C379.738 361.709 381.338 361.609 382.938 361.609C383.838 361.609 384.638 361.509 385.538 361.509C385.738 361.509 385.938 361.509 386.238 361.509C388.438 361.409 390.638 361.309 392.638 361.109C395.338 360.909 396.838 358.909 397.238 356.209C397.338 355.409 397.438 354.709 397.538 353.809C397.538 353.709 397.538 353.509 397.638 353.309C397.838 351.909 397.938 350.409 398.038 348.709C398.038 348.609 398.038 348.409 398.038 348.309C398.038 348.309 398.038 348.309 398.038 348.209C398.138 346.909 398.238 345.509 398.338 344.109C398.338 344.009 398.338 343.809 398.338 343.709C398.438 341.909 398.538 340.109 398.638 338.209C398.638 338.109 398.638 337.909 398.638 337.809C398.738 336.009 398.738 334.209 398.838 332.309C398.838 332.209 398.838 332.009 398.838 331.909C398.838 330.109 398.938 328.309 398.938 326.509C398.938 326.409 398.938 326.209 398.938 326.109C398.938 324.309 398.938 322.509 399.038 320.609V320.209C399.038 318.509 399.038 316.709 399.038 315.009C399.038 314.909 399.038 314.709 399.038 314.609C399.038 313.009 399.038 311.309 399.038 309.709C399.038 309.609 399.038 309.409 399.038 309.309C399.038 307.609 399.038 305.909 398.938 304.109C398.938 304.009 398.938 303.809 398.938 303.709C398.938 301.709 398.838 299.709 398.838 297.709C398.838 297.609 398.838 297.409 398.838 297.309C398.438 275.809 397.638 257.709 397.638 257.709C397.638 255.009 395.438 252.809 392.738 252.809H354.338C351.638 252.809 349.438 255.009 349.438 257.709C349.438 257.709 348.438 275.909 347.938 297.309V297.709C347.938 299.709 347.838 301.709 347.838 303.709C347.838 303.809 347.838 304.009 347.838 304.109C347.838 305.809 347.738 307.509 347.738 309.309C347.738 309.409 347.738 309.609 347.738 309.709C347.738 311.309 347.738 313.009 347.738 314.609C347.738 314.709 347.738 314.909 347.738 315.009C347.538 316.209 347.538 317.609 347.538 319.009Z" fill="#141414"/>
<g opacity="0.3">
<path d="M347.538 319.009V320.109C347.538 320.209 347.538 320.409 347.538 320.509C347.538 322.309 347.538 324.109 347.538 325.909C347.538 326.009 347.538 326.209 347.538 326.309C347.538 328.109 347.638 329.909 347.638 331.709C347.638 331.909 347.638 332.009 347.638 332.209C347.638 334.109 347.738 335.909 347.838 337.609C347.838 337.809 347.838 337.909 347.838 338.109C347.938 340.009 348.038 341.909 348.138 343.609C348.138 343.809 348.138 343.909 348.138 344.009C348.238 345.509 348.338 346.909 348.438 348.309C348.438 348.509 348.438 348.609 348.438 348.809C348.538 350.409 348.738 351.809 348.838 353.209C348.838 353.409 348.838 353.509 348.938 353.709C349.038 354.509 349.138 355.409 349.238 356.109C349.638 358.809 351.438 360.809 354.138 361.009C356.238 361.209 358.538 361.309 361.038 361.409C361.538 361.409 362.038 361.409 362.638 361.509C364.838 361.609 367.038 361.609 369.338 361.709C369.838 361.709 370.338 361.709 370.938 361.709C371.138 361.709 371.338 361.709 371.538 361.709C373.138 361.709 374.838 361.709 376.538 361.709C377.038 361.709 377.638 361.709 378.138 361.709C379.738 361.709 381.338 361.609 382.938 361.609C382.838 361.609 382.638 361.509 382.538 361.509C381.138 361.109 379.738 360.609 378.438 360.109C377.938 359.909 377.438 359.709 376.938 359.509C374.938 358.609 373.038 357.709 371.338 356.709C370.838 356.409 370.338 356.109 369.838 355.709C367.338 354.109 365.338 352.309 363.538 350.509C363.038 349.909 362.538 349.409 362.038 348.809C360.138 346.509 358.738 344.209 357.638 341.909C357.538 341.809 357.538 341.709 357.438 341.609C356.438 339.609 355.838 337.609 355.338 335.809C355.338 335.709 355.238 335.609 355.238 335.509C354.638 333.209 354.338 331.209 354.238 329.809C354.238 329.709 354.238 329.609 354.238 329.509C354.138 328.109 354.138 327.409 354.138 327.409L353.538 327.709L349.638 322.309L349.138 321.709L347.538 319.009Z" fill="black"/>
</g>
<g opacity="0.1">
<path d="M371.538 361.609C373.138 361.609 374.838 361.609 376.538 361.609C377.038 361.609 377.638 361.609 378.138 361.609C379.738 361.609 381.338 361.509 382.938 361.509C383.838 361.509 384.638 361.409 385.538 361.409C385.738 361.409 385.938 361.409 386.238 361.409C388.438 361.309 390.638 361.209 392.638 361.009C395.338 360.809 396.838 358.809 397.238 356.109C397.338 355.309 397.438 354.609 397.538 353.709C397.538 353.609 397.538 353.409 397.638 353.209C397.838 351.809 397.938 350.309 398.038 348.609C398.038 348.509 398.038 348.309 398.038 348.209C398.038 348.209 398.038 348.209 398.038 348.109C398.138 346.809 398.238 345.409 398.338 344.009C398.338 343.909 398.338 343.709 398.338 343.609C398.438 341.809 398.538 340.009 398.638 338.109C398.638 338.009 398.638 337.809 398.638 337.709C398.738 335.909 398.738 334.109 398.838 332.209C398.838 332.109 398.838 331.909 398.838 331.809C398.838 330.009 398.938 328.209 398.938 326.409C398.938 326.309 398.938 326.109 398.938 326.009C398.938 324.209 398.938 322.409 399.038 320.509V320.109C399.038 318.409 399.038 316.609 399.038 314.909C399.038 314.809 399.038 314.609 399.038 314.509C399.038 312.909 399.038 311.209 399.038 309.609C399.038 309.509 399.038 309.309 399.038 309.209C399.038 307.509 399.038 305.809 398.938 304.009C398.938 303.909 398.938 303.709 398.938 303.609C398.938 301.609 398.838 299.609 398.838 297.609C398.838 297.509 398.838 297.309 398.838 297.209C398.438 275.709 397.638 257.609 397.638 257.609C397.638 254.909 395.438 252.709 392.738 252.709H388.938C391.638 252.709 393.838 254.909 393.838 257.609C393.838 257.609 394.738 275.709 395.038 297.209C395.038 297.309 395.038 297.509 395.038 297.609C395.038 298.209 395.038 298.809 395.038 299.409C395.038 299.509 395.038 299.609 395.038 299.709C395.038 301.009 395.038 302.209 395.138 303.509C395.138 303.609 395.138 303.809 395.138 303.909C395.138 304.509 395.138 305.209 395.138 305.809C395.138 305.909 395.138 306.009 395.138 306.109C395.138 307.109 395.138 308.009 395.138 309.009C395.138 309.109 395.138 309.309 395.138 309.409C395.138 310.109 395.138 310.709 395.138 311.409C395.138 311.509 395.138 311.609 395.138 311.709C395.138 312.609 395.138 313.409 395.138 314.309C395.138 314.409 395.138 314.609 395.138 314.709V316.709C395.138 316.809 395.138 316.909 395.138 317.009C395.138 318.009 395.138 318.909 395.138 319.909V320.309C395.138 320.909 395.138 321.609 395.138 322.209C395.138 322.309 395.138 322.409 395.138 322.509C395.138 323.609 395.138 324.609 395.138 325.709C395.138 325.809 395.138 326.009 395.138 326.109C395.138 326.809 395.138 327.409 395.138 328.109C395.138 328.209 395.138 328.309 395.138 328.409C395.138 329.409 395.138 330.509 395.038 331.509C395.038 331.609 395.038 331.809 395.038 331.909C395.038 332.609 395.038 333.209 394.938 333.909C394.938 334.009 394.938 334.109 394.938 334.209C394.938 335.309 394.838 336.309 394.838 337.309C394.838 337.409 394.838 337.609 394.838 337.709C394.838 338.409 394.738 339.009 394.738 339.609C394.738 339.709 394.738 339.809 394.738 339.909C394.638 341.009 394.638 342.109 394.538 343.109C394.538 343.209 394.538 343.409 394.538 343.509C394.538 344.109 394.438 344.809 394.438 345.409C394.438 345.509 394.438 345.609 394.438 345.809C394.438 346.409 394.338 347.009 394.338 347.609C394.338 347.609 394.338 347.609 394.338 347.709C394.338 347.809 394.338 348.009 394.338 348.109C394.238 348.809 394.238 349.509 394.138 350.209C394.138 350.309 394.138 350.409 394.138 350.609C394.038 351.309 394.038 352.009 393.938 352.709C393.938 352.909 393.938 353.009 393.838 353.209C393.738 353.909 393.638 354.509 393.638 355.109C393.638 355.209 393.638 355.309 393.638 355.509C393.638 355.509 393.638 355.509 393.638 355.609C393.238 358.309 391.738 360.309 389.038 360.509C388.138 360.609 387.338 360.609 386.438 360.709C386.238 360.709 386.038 360.709 385.738 360.709C384.738 360.809 383.738 360.809 382.738 360.809H382.638C382.438 360.809 382.238 360.809 381.938 360.809C380.738 360.809 379.538 360.909 378.338 360.909C377.838 360.909 377.238 360.909 376.738 360.909C376.038 360.909 375.238 360.909 374.538 360.909C374.038 360.909 373.438 360.909 372.938 360.909C372.338 361.609 371.938 361.609 371.538 361.609Z" fill="white"/>
</g>
<path d="M376.538 361.609C377.038 361.609 377.638 361.609 378.138 361.609V361.509C378.238 361.009 378.338 360.509 378.438 360.009C379.938 350.409 380.038 328.709 380.038 327.709H378.438C378.438 328.009 378.238 349.809 376.838 359.409C376.838 360.209 376.638 360.909 376.538 361.609Z" fill="black"/>
<path d="M369.338 361.609C369.838 361.609 370.338 361.609 370.938 361.609C371.038 360.309 371.238 358.509 371.338 356.609C371.838 347.509 372.038 333.709 372.038 331.509H370.438C370.338 338.909 370.138 348.709 369.738 355.609C369.638 358.109 369.538 360.209 369.338 361.609Z" fill="black"/>
<path d="M361.038 361.409C361.538 361.409 362.038 361.409 362.638 361.509C363.038 358.709 363.338 354.709 363.538 350.409C363.838 342.109 363.838 333.109 363.838 331.509H362.238C362.238 336.609 362.238 343.009 362.038 348.709C361.838 353.909 361.438 358.609 361.038 361.409Z" fill="black"/>
<path d="M385.538 361.409C385.738 361.409 385.938 361.409 386.238 361.409C387.638 353.109 387.938 330.009 387.938 329.009H387.338C387.238 329.209 386.938 353.309 385.538 361.409Z" fill="black"/>
<path d="M386.838 356.909V357.209C392.638 357.109 396.138 354.809 397.438 353.709C397.438 353.609 397.438 353.409 397.538 353.209C396.438 354.209 393.038 356.809 386.838 356.909Z" fill="black"/>
<path d="M386.938 352.309V352.609C387.038 352.609 387.038 352.609 387.138 352.609C393.638 352.509 397.138 349.609 398.038 348.809C398.038 348.709 398.038 348.509 398.038 348.409C398.038 348.409 398.038 348.409 398.038 348.309C397.738 348.609 394.338 352.109 387.138 352.209C387.038 352.209 386.938 352.309 386.938 352.309Z" fill="black"/>
<path d="M387.638 347.409V347.709C393.538 347.609 396.938 345.309 398.238 344.209C398.238 344.109 398.238 343.909 398.238 343.809C397.238 344.709 393.738 347.309 387.638 347.409Z" fill="black"/>
<path d="M387.738 341.509V341.809C393.838 341.709 397.338 339.209 398.538 338.209C398.538 338.109 398.538 337.909 398.538 337.809C397.738 338.609 394.238 341.409 387.738 341.509Z" fill="black"/>
<path d="M387.838 335.709V336.009C394.038 335.909 397.638 333.309 398.738 332.309C398.738 332.209 398.738 332.009 398.738 331.909C398.038 332.609 394.538 335.609 387.838 335.709Z" fill="black"/>
<path d="M387.938 329.809V330.109C394.137 330.009 397.638 327.409 398.838 326.409C398.838 326.309 398.838 326.109 398.838 326.009C398.138 326.809 394.637 329.709 387.938 329.809Z" fill="black"/>
<path d="M388.038 323.909V324.209C394.238 324.109 397.738 321.509 398.838 320.609V320.209C398.138 320.909 394.638 323.809 388.038 323.909Z" fill="black"/>
<path d="M387.938 318.409V318.709C394.438 318.609 397.938 315.809 398.938 314.909C398.938 314.809 398.938 314.609 398.938 314.509C398.537 314.909 395.037 318.309 387.938 318.409Z" fill="black"/>
<path d="M387.938 313.009V313.309C394.438 313.209 398.038 310.409 398.938 309.509C398.938 309.409 398.938 309.209 398.938 309.109C398.637 309.409 395.137 312.909 387.938 313.009Z" fill="black"/>
<path d="M388.038 307.309V307.609C394.238 307.509 397.738 305.009 398.838 304.009C398.838 303.909 398.838 303.709 398.838 303.609C398.038 304.309 394.538 307.209 388.038 307.309Z" fill="black"/>
<path d="M388.038 300.809V301.109C393.938 301.009 397.438 298.709 398.738 297.609C398.738 297.509 398.738 297.309 398.738 297.209C397.738 298.109 394.238 300.709 388.038 300.809Z" fill="black"/>
<path d="M348.838 353.209C348.838 353.409 348.838 353.509 348.938 353.709C350.238 354.809 353.638 357.109 359.638 357.209V356.909C353.238 356.809 349.738 354.109 348.838 353.209Z" fill="black"/>
<path d="M348.438 348.409C348.438 348.609 348.438 348.709 348.438 348.909C349.638 349.909 353.338 352.509 359.538 352.609V352.309C352.838 352.109 349.137 349.109 348.438 348.409Z" fill="black"/>
<path d="M348.038 343.709C348.038 343.909 348.038 344.009 348.038 344.109C349.238 345.109 352.738 347.609 358.838 347.709V347.409C352.438 347.309 348.938 344.509 348.038 343.709Z" fill="black"/>
<path d="M347.838 337.709C347.838 337.909 347.838 338.009 347.838 338.209C348.838 339.109 351.938 341.509 357.638 341.909C358.038 341.909 358.438 341.909 358.838 341.909V341.609C358.338 341.609 357.938 341.609 357.538 341.509C351.338 341.009 348.238 338.109 347.838 337.709Z" fill="black"/>
<path d="M347.638 331.809C347.638 332.009 347.638 332.109 347.638 332.309C348.438 333.009 350.938 335.009 355.338 335.809C356.338 336.009 357.438 336.109 358.638 336.109V335.809C357.438 335.809 356.238 335.709 355.238 335.509C350.238 334.509 347.738 331.909 347.638 331.809Z" fill="black"/>
<path d="M347.538 326.009C347.538 326.109 347.538 326.309 347.538 326.409C348.238 327.109 350.438 328.809 354.238 329.709C355.438 330.009 356.938 330.209 358.438 330.209V329.909C356.838 329.909 355.438 329.709 354.138 329.409C349.938 328.409 347.838 326.309 347.538 326.009Z" fill="black"/>
<path d="M347.538 320.109C347.538 320.209 347.538 320.409 347.538 320.509C347.938 320.809 348.638 321.409 349.738 322.109C351.538 323.109 354.438 324.209 358.438 324.309V324.009C354.038 323.909 351.038 322.609 349.338 321.509C348.238 320.809 347.738 320.309 347.538 320.109Z" fill="black"/>
<path d="M347.538 314.909C348.438 315.709 351.938 318.609 358.538 318.709V318.409C351.038 318.309 347.538 314.509 347.538 314.509C347.538 314.609 347.538 314.709 347.538 314.909Z" fill="black"/>
<path d="M347.538 309.509C348.438 310.309 351.938 313.209 358.538 313.309V313.009C351.038 312.909 347.538 309.109 347.538 309.109C347.538 309.309 347.538 309.409 347.538 309.509Z" fill="black"/>
<path d="M347.638 304.009C348.738 305.009 352.238 307.509 358.438 307.609V307.309C351.938 307.209 348.438 304.309 347.638 303.609C347.638 303.709 347.638 303.809 347.638 304.009Z" fill="black"/>
<path d="M347.738 297.609C349.038 298.709 352.538 301.009 358.338 301.109V300.809C352.238 300.709 348.738 298.209 347.738 297.209V297.609Z" fill="black"/>
<path d="M101.737 186.41L103.537 192.21L100.337 206.41C100.337 206.41 96.9375 207.01 96.2375 206.21C96.0375 206.01 95.7375 204.91 95.4375 203.61C94.7375 200.21 93.7375 194.81 93.1375 193.41C92.2375 191.41 83.4375 192.31 79.7375 191.61C76.0375 190.81 74.7375 191.01 72.0375 188.81C69.3375 186.61 68.3375 185.21 68.4375 184.01C66.3375 181.81 67.2375 180.71 67.6375 180.21C67.8375 180.01 67.9375 179.91 67.9375 179.71C67.9375 179.51 67.8375 179.31 67.6375 178.71C67.6375 178.61 67.6375 178.51 67.7375 178.31C68.3375 176.71 72.6375 172.31 75.0375 170.71C75.1375 170.61 75.2374 170.51 75.3374 170.51C77.8374 168.91 84.9375 167.81 91.9375 167.81C98.6375 167.81 99.3374 167.41 100.837 169.31C100.937 169.41 100.937 169.51 101.037 169.61C102.737 171.81 103.537 176.11 103.537 180.11C103.737 183.81 101.737 186.41 101.737 186.41Z" fill="#D2D2D0"/>
<path opacity="0.5" d="M101.037 181.709L100.938 189.409L97.5375 182.609C97.5375 182.609 96.1375 171.309 93.8375 171.409C91.9375 171.509 79.4375 170.809 74.9375 170.509C75.0375 170.409 75.1375 170.309 75.2375 170.309C77.7375 168.709 84.8375 167.609 91.8375 167.609C98.5375 167.609 99.2375 167.209 100.737 169.109C100.537 169.509 100.438 169.909 100.438 170.309C100.638 171.509 101.037 181.709 101.037 181.709Z" fill="white"/>
<path d="M103.537 192.209L100.337 206.409C100.337 206.409 96.9375 207.009 96.2375 206.209C95.5375 205.409 94.0375 195.309 93.1375 193.309C92.2375 191.309 83.4375 192.209 79.7375 191.509C76.0375 190.709 74.7375 190.909 72.0375 188.709C69.3375 186.509 68.3375 185.109 68.4375 183.909C66.3375 181.709 67.2375 180.609 67.6375 180.109C68.0375 179.609 68.0375 179.509 67.6375 178.609C67.6375 178.509 67.6375 178.409 67.7375 178.209C73.5375 180.609 95.6374 180.509 98.3374 180.709C101.137 180.909 100.837 179.709 101.537 180.609C102.137 181.509 101.837 186.509 101.837 186.509L103.537 192.209Z" fill="#9E9E9E"/>
<path d="M103.538 192.209L100.338 206.409C100.338 206.409 96.9379 207.009 96.2379 206.209C96.0379 206.009 95.7379 204.909 95.4379 203.609L94.6379 189.809C94.6379 189.809 91.2379 189.609 81.0379 188.009C73.9379 186.909 70.5379 185.309 69.1379 184.509C68.5379 184.109 68.3379 183.909 68.3379 183.909C66.2379 181.709 67.1379 180.609 67.5379 180.109C67.7379 179.909 67.8379 179.809 67.8379 179.609C68.4379 180.509 69.6379 181.609 71.8379 182.709C73.7379 183.709 76.4379 184.509 80.1379 185.109C88.6379 186.409 101.638 186.409 101.638 186.409L103.538 192.209Z" fill="#898989"/>
<path d="M72.0381 182.71C71.6381 183.11 70.838 184.11 69.338 184.41C68.738 184.01 68.5381 183.81 68.5381 183.81C66.4381 181.61 67.3381 180.51 67.7381 180.01C67.9381 179.81 68.0381 179.71 68.0381 179.51C68.5381 180.51 69.7381 181.61 72.0381 182.71Z" fill="white"/>
<path d="M101.737 186.41L103.537 192.21L100.337 206.41C100.337 206.41 96.9375 207.01 96.2375 206.21C96.0375 206.01 95.7375 204.91 95.4375 203.61C94.7375 200.21 93.7375 194.81 93.1375 193.41C92.2375 191.41 83.4375 192.31 79.7375 191.61C76.0375 190.81 74.7375 191.01 72.0375 188.81C69.3375 186.61 68.3375 185.21 68.4375 184.01C66.3375 181.81 67.2375 180.71 67.6375 180.21C67.8375 180.01 67.9375 179.91 67.9375 179.71C67.9375 179.51 67.8375 179.31 67.6375 178.71C67.6375 178.61 67.6375 178.51 67.7375 178.31C68.3375 176.71 72.6375 172.31 75.0375 170.71C75.1375 170.61 75.2374 170.51 75.3374 170.51C77.8374 168.91 84.9375 167.81 91.9375 167.81C98.6375 167.81 99.3374 167.41 100.837 169.31C100.937 169.41 100.937 169.51 101.037 169.61C102.737 171.81 103.537 176.11 103.537 180.11C103.737 183.81 101.737 186.41 101.737 186.41Z" stroke="black" stroke-width="1.1955" stroke-miterlimit="10" stroke-linecap="round" stroke-linejoin="round"/>
<path d="M374.638 186.41L372.838 192.21L376.038 206.41C376.038 206.41 379.438 207.01 380.138 206.21C380.338 206.01 380.638 204.91 380.938 203.61C381.638 200.21 382.638 194.81 383.238 193.41C384.138 191.41 392.938 192.31 396.638 191.61C400.338 190.81 401.638 191.01 404.338 188.81C407.038 186.61 408.038 185.21 407.938 184.01C410.038 181.81 409.138 180.71 408.738 180.21C408.538 180.01 408.438 179.91 408.438 179.71C408.438 179.51 408.538 179.31 408.738 178.71C408.738 178.61 408.738 178.51 408.638 178.31C408.038 176.71 403.738 172.31 401.338 170.71C401.238 170.61 401.138 170.51 401.038 170.51C398.538 168.91 391.438 167.81 384.438 167.81C377.738 167.81 377.038 167.41 375.538 169.31C375.438 169.41 375.438 169.51 375.338 169.61C373.638 171.81 372.838 176.11 372.838 180.11C372.638 183.81 374.638 186.41 374.638 186.41Z" fill="#D2D2D0"/>
<path opacity="0.5" d="M375.338 181.709L375.438 189.409L378.838 182.609C378.838 182.609 380.238 171.309 382.538 171.409C384.438 171.509 396.938 170.809 401.438 170.509C401.338 170.409 401.238 170.309 401.138 170.309C398.638 168.709 391.538 167.609 384.538 167.609C377.838 167.609 377.138 167.209 375.638 169.109C375.838 169.509 375.938 169.909 375.938 170.309C375.838 171.509 375.338 181.709 375.338 181.709Z" fill="white"/>
<path d="M372.838 192.209L376.038 206.409C376.038 206.409 379.438 207.009 380.138 206.209C380.838 205.409 382.338 195.309 383.238 193.309C384.138 191.309 392.938 192.209 396.638 191.509C400.338 190.709 401.638 190.909 404.338 188.709C407.038 186.509 408.038 185.109 407.938 183.909C410.038 181.709 409.138 180.609 408.738 180.109C408.338 179.609 408.338 179.509 408.738 178.609C408.738 178.509 408.738 178.409 408.638 178.209C402.838 180.609 380.738 180.509 378.038 180.709C375.238 180.909 375.538 179.709 374.838 180.609C374.238 181.509 374.538 186.509 374.538 186.509L372.838 192.209Z" fill="#9E9E9E"/>
<path d="M372.838 192.209L376.038 206.409C376.038 206.409 379.438 207.009 380.138 206.209C380.338 206.009 380.638 204.909 380.938 203.609L381.738 189.809C381.738 189.809 385.138 189.609 395.338 188.009C402.438 186.909 405.838 185.309 407.238 184.509C407.838 184.109 408.038 183.909 408.038 183.909C410.138 181.709 409.238 180.609 408.838 180.109C408.638 179.909 408.538 179.809 408.538 179.609C407.938 180.509 406.738 181.609 404.538 182.709C402.638 183.709 399.938 184.509 396.238 185.109C387.738 186.409 374.738 186.409 374.738 186.409L372.838 192.209Z" fill="#898989"/>
<path d="M404.438 182.71C404.838 183.11 405.639 184.11 407.139 184.41C407.739 184.01 407.938 183.81 407.938 183.81C410.038 181.61 409.139 180.51 408.739 180.01C408.539 179.81 408.438 179.71 408.438 179.51C407.838 180.51 406.638 181.61 404.438 182.71Z" fill="white"/>
<path d="M374.638 186.41L372.838 192.21L376.038 206.41C376.038 206.41 379.438 207.01 380.138 206.21C380.338 206.01 380.638 204.91 380.938 203.61C381.638 200.21 382.638 194.81 383.238 193.41C384.138 191.41 392.938 192.31 396.638 191.61C400.338 190.81 401.638 191.01 404.338 188.81C407.038 186.61 408.038 185.21 407.938 184.01C410.038 181.81 409.138 180.71 408.738 180.21C408.538 180.01 408.438 179.91 408.438 179.71C408.438 179.51 408.538 179.31 408.738 178.71C408.738 178.61 408.738 178.51 408.638 178.31C408.038 176.71 403.738 172.31 401.338 170.71C401.238 170.61 401.138 170.51 401.038 170.51C398.538 168.91 391.438 167.81 384.438 167.81C377.738 167.81 377.038 167.41 375.538 169.31C375.438 169.41 375.438 169.51 375.338 169.61C373.638 171.81 372.838 176.11 372.838 180.11C372.638 183.81 374.638 186.41 374.638 186.41Z" stroke="black" stroke-width="1.1955" stroke-miterlimit="10" stroke-linecap="round" stroke-linejoin="round"/>
<path d="M396.437 305.909C395.437 313.209 396.037 318.309 397.337 320.709C398.637 323.009 394.538 326.709 392.138 327.109C390.138 327.409 361.137 326.009 352.437 325.609C350.937 325.509 350.038 325.509 350.038 325.509C350.038 325.509 349.638 325.309 349.038 324.909C348.638 324.709 348.037 324.409 347.437 324.109C344.337 322.609 339.138 320.209 334.538 319.609C334.338 319.609 334.138 319.609 334.038 319.509L238.738 319.309H237.937L142.138 319.409C137.438 319.909 131.937 322.409 128.737 324.009C128.137 324.309 127.538 324.609 127.138 324.809C126.538 325.109 126.138 325.409 126.138 325.409C126.138 325.409 125.237 325.409 123.737 325.509C115.037 325.909 86.0375 327.309 84.0375 327.009C81.7375 326.609 77.5375 322.909 78.8375 320.609C80.1375 318.309 80.7375 313.209 79.7375 305.809C78.7375 298.509 78.7375 299.109 77.3375 282.809C76.5375 274.109 76.4375 244.509 77.9375 230.909C78.2375 227.909 78.6375 225.709 79.1375 224.709C81.8375 218.709 94.4375 206.209 96.2375 203.209C98.5375 201.709 105.038 187.609 117.138 164.509C129.238 141.409 146.938 121.909 150.638 119.909C154.338 117.909 158.738 117.809 161.138 118.709C167.338 117.409 173.537 116.609 179.837 116.009C187.837 115.209 195.938 114.609 203.938 114.109C211.038 113.709 218.138 113.409 225.238 113.209C233.038 113.009 240.738 112.909 248.538 113.109C255.438 113.309 262.338 113.609 269.238 113.909C277.338 114.309 285.538 114.909 293.638 115.609C300.738 116.309 307.937 117.109 314.937 118.609C317.337 117.709 321.737 117.809 325.437 119.809C329.137 121.809 346.837 141.309 358.937 164.409C371.037 187.509 377.437 201.509 379.837 203.109C381.637 206.109 394.137 218.609 396.937 224.609C397.437 225.709 397.838 227.909 398.138 230.809C399.638 244.409 399.537 274.009 398.737 282.709C397.437 299.209 397.437 298.609 396.437 305.909Z" fill="#D2D2D0"/>
<path d="M116.638 181.409C116.638 181.409 120.038 186.409 127.638 187.209C135.238 188.009 151.938 188.309 151.938 188.309C151.938 188.309 137.638 188.209 130.538 185.209C123.438 182.309 121.838 176.809 121.838 176.809L116.638 181.409Z" fill="#9E9E9E"/>
<path d="M359.537 181.409C359.537 181.409 356.137 186.409 348.537 187.209C340.937 188.009 324.237 188.309 324.237 188.309C324.237 188.309 338.537 188.209 345.637 185.209C352.737 182.309 354.337 176.809 354.337 176.809L359.537 181.409Z" fill="#9E9E9E"/>
<path d="M351.138 179.909C350.338 180.209 348.938 180.509 346.938 180.709C346.438 180.809 345.838 180.809 345.238 180.909C336.638 181.709 320.638 182.209 303.738 182.409C275.238 182.809 243.938 182.609 240.438 182.609H240.238C235.838 182.609 138.438 183.309 129.338 179.909C119.938 176.409 121.238 168.109 134.038 149.609C143.238 136.409 147.338 129.409 154.038 124.309C155.038 123.609 156.038 122.909 157.138 122.209L167.138 120.909L216.938 119.609H217.138L240.438 119.409H240.638L264.238 119.609L314.038 120.909L323.638 122.109C332.238 127.409 336.238 134.309 346.738 149.509C353.738 159.509 357.238 166.609 357.538 171.509C357.438 175.809 355.338 178.409 351.138 179.909Z" fill="#3A3E3D"/>
<path opacity="0.5" d="M117.438 317.409L136.538 319.209C136.538 319.209 116.838 313.809 115.438 310.909C114.038 308.009 133.138 265.509 133.138 265.509L89.7377 261.309L87.1377 306.509L94.3376 317.209L117.438 317.409Z" fill="url(#paint0_linear_335_3096)"/>
<path opacity="0.5" d="M358.738 317.409L339.638 319.209C339.638 319.209 359.338 313.809 360.738 310.909C362.138 308.009 343.038 265.509 343.038 265.509L386.438 261.309L389.038 306.509L381.838 317.209L358.738 317.409Z" fill="url(#paint1_linear_335_3096)"/>
<path opacity="0.5" d="M131.538 324.01L127.138 324.91L123.638 325.609C114.938 326.009 85.9379 327.409 83.9379 327.109C81.6379 326.709 77.4379 323.009 78.7379 320.709C80.0379 318.409 80.6379 313.31 79.6379 305.91C78.6379 298.609 78.6379 299.21 77.2379 282.91C76.4379 274.21 76.3379 244.61 77.8379 231.01C79.2379 230.21 81.2379 229.509 83.2379 230.809C86.7379 232.909 85.6379 254.41 89.3379 257.01C88.3379 264.31 82.8379 303.309 82.8379 303.309C82.8379 303.309 79.6379 312.509 83.3379 318.609C86.4379 323.809 118.938 324.11 128.738 324.01C130.538 324.01 131.538 324.01 131.538 324.01Z" fill="url(#paint2_linear_335_3096)"/>
<path d="M353.038 311.409C352.238 311.509 351.338 311.709 350.338 311.909C342.338 313.709 337.338 314.409 332.538 314.909C330.138 315.109 307.738 315.509 285.438 315.809C263.038 316.109 240.738 316.309 238.338 316.409C238.338 316.409 238.338 316.409 238.238 316.409C238.138 316.409 238.138 316.409 238.138 316.409C233.438 316.309 148.638 315.409 143.938 314.909C139.038 314.409 134.138 313.709 126.138 311.909C125.238 311.709 124.338 311.509 123.638 311.409C117.838 310.309 116.738 310.609 119.738 302.509C122.738 294.309 132.338 275.609 139.438 267.609C140.338 266.609 141.138 265.809 141.938 265.209C149.038 259.509 167.338 256.209 169.038 256.009C170.738 255.709 169.038 256.009 175.638 257.609C178.238 258.209 188.638 258.709 200.238 259.009C217.838 259.509 238.138 259.709 238.338 259.709C238.538 259.709 258.838 259.509 276.438 259.009C288.038 258.709 298.338 258.209 301.038 257.609C307.638 256.009 306.038 255.709 307.638 256.009C309.338 256.309 327.538 259.509 334.738 265.209C335.538 265.809 336.338 266.609 337.238 267.609C344.338 275.609 353.938 294.309 356.938 302.509C359.638 310.609 358.638 310.409 353.038 311.409Z" fill="black"/>
<path d="M380.838 206.909C380.738 207.609 380.538 208.309 380.238 209.109C379.938 209.909 379.538 210.609 379.038 211.409C377.238 214.109 373.938 216.809 368.938 218.409C367.738 218.809 365.938 219.109 363.638 219.509C350.238 221.709 319.838 223.909 298.338 225.409C276.338 226.909 245.638 227.509 238.138 227.709C230.638 227.609 199.938 227.009 177.938 225.409C156.438 223.909 126.038 221.709 112.638 219.509C110.338 219.109 108.538 218.709 107.338 218.409C102.238 216.809 99.0382 214.109 97.2382 211.409C96.7382 210.609 96.3382 209.909 96.0382 209.109C95.7382 208.309 95.5382 207.609 95.4382 206.909C95.4382 206.909 92.3382 232.909 94.9382 238.209C94.9382 238.309 95.0382 238.409 95.0382 238.509C98.3382 243.609 123.138 244.809 141.538 246.209C160.238 247.709 159.838 247.809 159.438 246.109C159.038 244.409 147.438 232.409 147.438 232.409C147.438 232.409 169.338 238.109 211.738 240.709C215.438 240.809 215.738 241.109 219.638 246.609C223.538 252.109 225.538 254.709 228.138 255.409C229.838 255.809 234.938 255.909 238.138 255.909C241.238 255.909 246.338 255.809 248.138 255.409C250.738 254.709 252.738 252.109 256.638 246.609C260.538 241.109 260.838 240.909 264.538 240.709C307.038 238.109 328.838 232.409 328.838 232.409C328.838 232.409 317.238 244.409 316.838 246.109C316.438 247.809 316.038 247.709 334.738 246.209C353.138 244.709 378.038 243.509 381.238 238.509C381.338 238.409 381.338 238.309 381.338 238.209C383.938 232.909 380.838 206.909 380.838 206.909Z" fill="#21292C"/>
<path d="M163.238 267.409C163.238 267.409 145.038 310.109 140.038 311.209C136.838 311.909 128.738 311.709 123.438 311.509C117.638 310.409 116.538 310.709 119.538 302.609C122.538 294.409 132.138 275.709 139.238 267.709L163.238 267.409Z" fill="#232323"/>
<path d="M353.038 311.409C347.738 311.609 338.838 311.909 335.438 311.209C330.438 310.209 312.238 267.409 312.238 267.409L337.038 267.609C344.138 275.609 353.738 294.309 356.738 302.509C359.638 310.609 358.638 310.409 353.038 311.409Z" fill="#232323"/>
<path d="M380.838 206.909C380.738 207.609 380.538 208.309 380.238 209.109C379.938 209.909 379.538 210.609 379.038 211.409C377.238 214.109 373.938 216.809 368.938 218.409C367.738 218.809 365.938 219.109 363.638 219.509C350.238 221.709 319.838 223.909 298.338 225.409C276.338 226.909 245.638 227.509 238.138 227.709C230.638 227.609 199.938 227.009 177.938 225.409C156.438 223.909 126.038 221.709 112.638 219.509C110.338 219.109 108.538 218.709 107.338 218.409C102.238 216.809 99.0382 214.109 97.2382 211.409C96.7382 210.609 96.3382 209.909 96.0382 209.109C95.7382 208.309 95.5382 207.609 95.4382 206.909C95.4382 206.909 92.3382 232.909 94.9382 238.209C94.9382 238.309 95.0382 238.409 95.0382 238.509C98.3382 243.609 123.138 244.809 141.538 246.209C160.238 247.709 159.838 247.809 159.438 246.109C159.038 244.409 147.438 232.409 147.438 232.409C147.438 232.409 169.338 238.109 211.738 240.709C215.438 240.809 215.738 241.109 219.638 246.609C223.538 252.109 225.538 254.709 228.138 255.409C229.838 255.809 234.938 255.909 238.138 255.909C241.238 255.909 246.338 255.809 248.138 255.409C250.738 254.709 252.738 252.109 256.638 246.609C260.538 241.109 260.838 240.909 264.538 240.709C307.038 238.109 328.838 232.409 328.838 232.409C328.838 232.409 317.238 244.409 316.838 246.109C316.438 247.809 316.038 247.709 334.738 246.209C353.138 244.709 378.038 243.509 381.238 238.509C381.338 238.409 381.338 238.309 381.338 238.209C383.938 232.909 380.838 206.909 380.838 206.909Z" stroke="black" stroke-width="1.1955" stroke-miterlimit="10" stroke-linecap="round" stroke-linejoin="round"/>
<path d="M142.138 268.409C142.138 268.409 150.538 269.709 158.538 270.309C166.538 270.909 165.838 270.309 176.638 270.109C187.438 269.909 217.838 270.609 217.838 270.609L217.038 268.409C217.038 268.409 192.738 267.109 181.038 265.809C169.338 264.509 158.638 264.209 158.638 264.209C158.638 264.209 142.538 266.709 142.138 268.409Z" fill="#383F45"/>
<path d="M291.638 269.109V288.309C291.638 289.009 291.038 289.609 290.338 289.609H188.138C187.438 289.609 186.838 289.009 186.838 288.309V269.109C186.838 268.409 187.438 267.809 188.138 267.809H290.338C291.038 267.809 291.638 268.409 291.638 269.109Z" fill="#1E2126"/>
<path d="M77.6377 234.909C77.6377 234.909 86.1377 224.409 94.2377 220.109" stroke="black" stroke-width="0.2965" stroke-miterlimit="10"/>
<path d="M122.138 223.909C122.138 223.909 151.338 228.909 213.038 232.809C217.538 233.009 217.538 233.909 218.438 235.309C219.338 236.709 224.738 246.809 224.838 247.409C224.938 248.109 224.538 248.709 223.438 247.909C222.338 247.209 216.238 237.509 213.938 236.709C211.638 235.909 138.838 229.309 128.038 227.009C122.138 225.909 120.238 223.809 122.138 223.909Z" fill="#F7FCFF"/>
<path d="M354.038 223.909C354.038 223.909 324.838 228.909 263.138 232.809C258.638 233.009 258.638 233.909 257.738 235.309C256.838 236.709 251.438 246.809 251.338 247.409C251.238 248.109 251.638 248.709 252.738 247.909C253.838 247.209 259.938 237.509 262.238 236.709C264.538 236.009 337.338 229.309 348.138 227.009C354.038 225.909 355.938 223.809 354.038 223.909Z" fill="#F7FCFF"/>
<path d="M223.338 247.909C222.238 247.209 216.138 237.509 213.838 236.709C211.538 236.009 138.738 229.309 127.938 227.009C122.138 225.809 120.238 223.709 122.138 223.809C122.138 223.809 122.338 223.809 122.638 223.909C123.738 224.509 125.438 225.209 127.938 225.709C138.838 228.009 211.638 234.609 213.838 235.409C216.138 236.109 222.238 245.809 223.338 246.609C223.938 247.009 224.338 247.009 224.538 246.809C224.638 247.109 224.738 247.309 224.738 247.409C224.938 248.109 224.438 248.609 223.338 247.909Z" fill="#D3D3D3"/>
<path d="M348.238 227.109C337.338 229.409 264.538 236.009 262.338 236.809C260.038 237.509 253.938 247.209 252.838 248.009C251.738 248.709 251.338 248.109 251.438 247.509C251.438 247.409 251.538 247.209 251.638 246.909C251.838 247.109 252.238 247.109 252.838 246.709C253.938 246.009 260.038 236.309 262.338 235.509C264.638 234.809 337.438 228.109 348.238 225.809C350.738 225.309 352.538 224.609 353.538 224.009C353.838 223.909 354.038 223.909 354.038 223.909C355.938 223.809 354.038 225.909 348.238 227.109Z" fill="#D3D3D3"/>
<path d="M356.638 302.509C353.238 293.309 341.538 270.909 334.438 265.209C327.338 259.509 309.038 256.209 307.338 256.009C305.638 255.709 307.338 256.009 300.738 257.609C298.138 258.209 287.738 258.709 276.138 259.009C284.138 259.309 298.638 259.809 300.938 259.309C304.038 258.609 304.638 257.309 309.038 258.009C313.538 258.709 326.638 263.109 332.038 266.409C337.438 269.809 354.738 300.409 355.638 304.809C356.538 309.209 354.838 310.009 341.238 312.409C328.538 314.709 249.338 314.909 238.038 314.909C226.838 314.909 147.538 314.609 134.838 312.409C121.238 310.009 119.438 309.109 120.438 304.809C121.338 300.409 138.638 269.809 144.038 266.409C149.438 263.009 162.538 258.709 167.038 258.009C171.538 257.309 172.038 258.609 175.138 259.309C177.338 259.809 191.938 259.309 199.938 259.009C188.338 258.709 178.038 258.209 175.338 257.609C168.738 256.009 170.338 255.709 168.738 256.009C167.038 256.309 148.838 259.509 141.638 265.209C134.538 270.909 122.838 293.309 119.438 302.509C116.038 311.709 117.838 310.209 125.838 311.909C133.838 313.709 138.838 314.409 143.638 314.909C148.338 315.409 233.138 316.309 237.838 316.409C237.838 316.409 237.838 316.409 237.938 316.409C238.038 316.409 238.038 316.409 238.038 316.409C242.738 316.309 327.538 315.409 332.238 314.909C337.138 314.409 342.038 313.709 350.038 311.909C358.238 310.209 360.038 311.709 356.638 302.509Z" fill="black"/>
<path d="M334.038 268.409C334.038 268.409 325.638 269.709 317.638 270.309C309.638 270.909 310.338 270.309 299.538 270.109C288.738 269.909 258.338 270.609 258.338 270.609L259.138 268.409C259.138 268.409 283.438 267.109 295.138 265.809C306.838 264.509 317.538 264.209 317.538 264.209C317.538 264.209 333.638 266.709 334.038 268.409Z" fill="#383F45"/>
<path d="M338.338 272.409C338.338 272.409 329.738 273.809 323.238 274.109C316.838 274.409 238.038 275.509 238.038 275.509" stroke="#2E2F31" stroke-width="0.797" stroke-miterlimit="10"/>
<path d="M340.338 277.009C340.338 277.009 331.738 278.409 325.238 278.709C318.838 279.009 240.038 280.109 240.038 280.109" stroke="#2E2F31" stroke-width="0.797" stroke-miterlimit="10"/>
<path d="M343.138 281.609C343.138 281.609 333.738 283.109 327.338 283.409C320.938 283.709 242.138 284.809 242.138 284.809" stroke="#2E2F31" stroke-width="0.797" stroke-miterlimit="10"/>
<path d="M346.338 286.209C346.338 286.209 335.738 287.809 329.338 288.109C322.938 288.409 244.138 289.509 244.138 289.509" stroke="#2E2F31" stroke-width="0.797" stroke-miterlimit="10"/>
<path d="M349.038 291.009C349.038 291.009 337.838 292.409 331.338 292.809C324.938 293.109 246.138 294.209 246.138 294.209" stroke="#2E2F31" stroke-width="0.797" stroke-miterlimit="10"/>
<path d="M137.838 272.409C137.838 272.409 146.438 273.809 152.938 274.109C159.338 274.409 238.138 275.509 238.138 275.509" stroke="#2E2F31" stroke-width="0.797" stroke-miterlimit="10"/>
<path d="M135.838 277.009C135.838 277.009 144.438 278.409 150.938 278.709C157.338 279.009 236.138 280.109 236.138 280.109" stroke="#2E2F31" stroke-width="0.797" stroke-miterlimit="10"/>
<path d="M133.038 281.609C133.038 281.609 142.438 283.109 148.838 283.409C155.238 283.709 234.038 284.809 234.038 284.809" stroke="#2E2F31" stroke-width="0.797" stroke-miterlimit="10"/>
<path d="M129.738 286.209C129.738 286.209 140.338 287.809 146.738 288.109C153.138 288.409 231.938 289.509 231.938 289.509" stroke="#2E2F31" stroke-width="0.797" stroke-miterlimit="10"/>
<path d="M127.038 291.009C127.038 291.009 138.238 292.409 144.738 292.809C151.138 293.109 229.938 294.209 229.938 294.209" stroke="#2E2F31" stroke-width="0.797" stroke-miterlimit="10"/>
<path d="M351.238 295.31C351.238 295.31 339.938 297.21 333.438 297.51C327.038 297.81 238.038 298.91 238.038 298.91C238.038 298.91 149.138 297.91 142.638 297.51C136.238 297.21 124.838 295.31 124.838 295.31" stroke="#2E2F31" stroke-width="0.797" stroke-miterlimit="10"/>
<path d="M354.038 300.009C354.038 300.009 341.938 301.809 335.438 302.109C329.038 302.409 238.038 303.509 238.038 303.509C238.038 303.509 147.038 302.509 140.638 302.109C134.238 301.809 122.038 300.009 122.038 300.009" stroke="#2E2F31" stroke-width="0.797" stroke-miterlimit="10"/>
<path d="M355.838 304.909C355.838 304.909 343.938 306.509 337.438 306.809C331.038 307.109 238.038 308.209 238.038 308.209C238.038 308.209 145.038 307.209 138.638 306.809C132.238 306.509 120.238 304.909 120.238 304.909" stroke="#2E2F31" stroke-width="0.797" stroke-miterlimit="10"/>
<path opacity="0.5" d="M344.638 324.01L349.038 324.91L352.538 325.609C361.238 326.009 390.238 327.409 392.238 327.109C394.538 326.709 398.738 323.009 397.438 320.709C396.138 318.409 395.538 313.31 396.538 305.91C397.538 298.609 397.538 299.21 398.938 282.91C399.738 274.21 399.838 244.61 398.338 231.01C396.938 230.21 394.938 229.509 392.938 230.809C389.438 232.909 390.538 254.41 386.838 257.01C387.838 264.31 393.338 303.309 393.338 303.309C393.338 303.309 396.538 312.509 392.838 318.609C389.738 323.809 357.238 324.11 347.438 324.01C345.638 324.01 344.638 324.01 344.638 324.01Z" fill="url(#paint3_linear_335_3096)"/>
<g opacity="0.5">
<path d="M113.638 181.309C113.638 181.309 111.938 183.109 116.938 185.409C119.638 186.709 122.238 188.309 124.738 189.909C128.738 192.409 132.638 195.009 136.338 197.709C139.738 200.209 143.238 202.809 146.138 205.909C146.538 206.309 150.538 211.009 148.438 211.309C148.138 211.409 147.838 211.209 147.538 211.009C145.138 209.609 143.138 207.609 141.038 205.809C134.738 200.609 127.038 197.009 119.938 193.209C117.338 191.809 114.838 190.509 112.238 189.109C108.438 187.109 107.438 184.109 114.738 176.909C115.738 178.709 113.638 181.309 113.638 181.309Z" fill="url(#paint4_linear_335_3096)"/>
<path d="M362.438 181.309C362.438 181.309 364.138 183.109 359.138 185.409C356.438 186.709 353.838 188.309 351.338 189.909C347.338 192.409 343.438 195.009 339.738 197.709C336.338 200.209 332.838 202.809 329.938 205.909C329.538 206.309 325.538 211.009 327.638 211.309C327.938 211.409 328.238 211.209 328.538 211.009C330.938 209.609 332.938 207.609 335.038 205.809C341.338 200.609 349.038 197.009 356.138 193.209C358.738 191.809 361.238 190.509 363.838 189.109C367.638 187.109 368.638 184.109 361.338 176.909C360.338 178.709 362.438 181.309 362.438 181.309Z" fill="url(#paint5_linear_335_3096)"/>
</g>
<path d="M398.538 234.909C398.538 234.909 390.038 224.409 381.938 220.109" stroke="black" stroke-width="0.2965" stroke-miterlimit="10"/>
<g opacity="0.3">
<path d="M215.538 227.109C215.538 227.109 196.838 193.609 176.638 183.909Z" fill="#FBFAF6"/>
<path d="M260.638 227.109C260.638 227.109 279.338 193.609 299.538 183.909Z" fill="#FBFAF6"/>
</g>
<path d="M334.538 319.409C334.338 319.409 334.138 319.409 334.038 319.409H334.538Z" stroke="black" stroke-width="0.2965" stroke-miterlimit="10"/>
<path opacity="0.1" d="M279.238 289.609H188.138C187.438 289.609 186.838 289.009 186.838 288.309V278.709L279.238 289.609Z" fill="#FBFAF6"/>
<path d="M263.338 294.209H212.338C211.138 294.209 210.138 293.209 210.138 292.009V265.409C210.138 264.209 211.138 263.209 212.338 263.209H263.338C264.538 263.209 265.538 264.209 265.538 265.409V292.009C265.638 293.209 264.638 294.209 263.338 294.209Z" fill="#FBFAF6"/>
<path d="M264.038 265.409V292.009C264.038 292.409 263.738 292.609 263.438 292.609H212.438C212.038 292.609 211.838 292.309 211.838 292.009V265.409C211.838 265.009 212.138 264.809 212.438 264.809H263.438C263.738 264.809 264.038 265.109 264.038 265.409Z" fill="#201F25"/>
<path d="M223.137 272.809L222.037 275.009H224.137L224.537 274.209L225.037 274.309L224.837 274.709C224.537 275.309 224.337 275.409 223.737 275.409H222.037C221.437 275.409 221.437 275.209 221.637 274.709L222.437 273.109C222.737 272.509 222.937 272.409 223.537 272.409H225.237C225.737 272.409 225.837 272.609 225.637 273.109L225.537 273.409L224.937 273.509L225.237 272.809H223.137Z" fill="#EFEEF5" stroke="#EFEEF5" stroke-width="0.2405" stroke-miterlimit="10"/>
<path d="M227.937 272.409H230.037C230.637 272.409 230.637 272.609 230.437 273.109L229.637 274.709C229.337 275.309 229.137 275.409 228.537 275.409H226.437C225.937 275.409 225.837 275.209 226.037 274.709L226.837 273.109C227.137 272.509 227.437 272.409 227.937 272.409ZM229.037 275.009L230.137 272.809H227.637L226.537 275.009H229.037Z" fill="#EFEEF5" stroke="#EFEEF5" stroke-width="0.2405" stroke-miterlimit="10"/>
<path d="M232.338 272.409H234.838C235.238 272.409 235.438 272.609 235.238 273.009L234.938 273.709C234.737 274.109 234.438 274.309 234.038 274.309H233.638L234.438 275.509H233.638L232.938 274.309H232.038L231.438 275.509H230.938L232.338 272.409ZM232.638 272.809L232.138 273.909H233.938C234.138 273.909 234.337 273.809 234.438 273.609L234.638 273.209C234.738 272.909 234.638 272.909 234.438 272.909H232.638V272.809Z" fill="#EFEEF5" stroke="#EFEEF5" stroke-width="0.2405" stroke-miterlimit="10"/>
<path d="M237.538 272.409H239.638C240.238 272.409 240.238 272.609 240.038 273.109L239.238 274.709C238.938 275.309 238.738 275.409 238.138 275.409H236.038C235.538 275.409 235.438 275.209 235.638 274.709L236.438 273.109C236.738 272.509 236.938 272.409 237.538 272.409ZM238.538 275.009L239.638 272.809H237.138L236.038 275.009H238.538Z" fill="#EFEEF5" stroke="#EFEEF5" stroke-width="0.2405" stroke-miterlimit="10"/>
<path d="M241.938 272.409H242.438L241.138 275.009H243.438L243.238 275.409H240.438L241.938 272.409Z" fill="#EFEEF5" stroke="#EFEEF5" stroke-width="0.2405" stroke-miterlimit="10"/>
<path d="M245.737 272.409H246.237L244.937 275.009H247.237L247.037 275.409H244.237L245.737 272.409Z" fill="#EFEEF5" stroke="#EFEEF5" stroke-width="0.2405" stroke-miterlimit="10"/>
<path d="M250.837 272.409H251.337L251.537 275.509H250.937V274.709H248.837L248.037 275.509H247.537L250.837 272.409ZM250.937 274.309L250.837 272.709L249.237 274.309H250.937Z" fill="#EFEEF5" stroke="#EFEEF5" stroke-width="0.2405" stroke-miterlimit="10"/>
<path d="M223.038 277.81H224.238L224.738 284.61H223.438L223.338 282.91H218.738L217.038 284.61H215.938L223.038 277.81ZM223.338 282.01L223.138 278.51L219.638 282.01H223.338Z" fill="#EFEEF5" stroke="#EFEEF5" stroke-width="0.2405" stroke-miterlimit="10"/>
<path d="M230.238 277.81H231.338L228.538 283.71H233.738L233.238 284.61H226.938L230.238 277.81Z" fill="#EFEEF5" stroke="#EFEEF5" stroke-width="0.2405" stroke-miterlimit="10"/>
<path d="M236.738 284.61H235.638L238.438 278.71H235.338L235.738 277.81H243.138L242.738 278.71H239.638L236.738 284.61Z" fill="#EFEEF5" stroke="#EFEEF5" stroke-width="0.2405" stroke-miterlimit="10"/>
<path d="M245.037 277.81H246.137L242.837 284.61H241.737L245.037 277.81Z" fill="#EFEEF5" stroke="#EFEEF5" stroke-width="0.2405" stroke-miterlimit="10"/>
<path d="M250.237 278.71L249.337 280.61H253.637C254.837 280.61 255.037 281.01 254.437 282.21L254.037 283.01C253.437 284.31 252.937 284.61 251.637 284.61H247.637C246.437 284.61 246.237 284.21 246.837 283.01L246.937 282.81L248.137 282.51L247.637 283.61H252.737L253.737 281.61H249.437C248.237 281.61 248.037 281.31 248.637 280.01L248.937 279.41C249.537 278.11 250.037 277.81 251.337 277.81H254.937C256.037 277.81 256.337 278.11 255.837 279.31L255.737 279.41L254.637 279.71L255.137 278.71H250.237Z" fill="#EFEEF5" stroke="#EFEEF5" stroke-width="0.2405" stroke-miterlimit="10"/>
<path opacity="0.2" d="M264.038 284.609V292.109C264.038 292.509 263.738 292.709 263.438 292.709H212.438C212.038 292.709 211.838 292.409 211.838 292.109V289.809L264.038 284.609Z" fill="#FBFAF6"/>
<path d="M156.638 245.709C156.438 246.109 154.438 245.909 138.638 245.209C128.338 244.709 120.338 243.909 114.138 243.109C109.738 242.509 106.238 241.909 103.538 241.209C98.8376 240.109 96.2377 239.109 94.9377 238.509C94.8377 238.409 94.8376 238.309 94.8376 238.209C92.2376 232.909 95.3376 206.909 95.3376 206.909C95.4376 207.609 95.6377 208.309 95.9377 209.109C96.2377 209.909 96.6377 210.609 97.1377 211.409C97.5377 213.809 98.5377 217.809 100.938 219.009C103.438 220.309 110.638 221.709 114.238 222.309C115.538 222.509 116.338 222.709 116.338 222.709C116.338 222.709 117.338 224.709 120.138 226.109C125.738 229.109 145.638 232.209 145.638 232.209C145.638 232.209 156.838 245.309 156.638 245.709Z" fill="#FBFAF6"/>
<path d="M115.538 222.309C115.238 222.309 114.838 222.309 114.238 222.309C110.038 222.309 99.1376 221.209 97.2376 218.209C95.4376 215.409 95.7376 210.609 95.9376 209.109C96.2376 209.909 96.6376 210.609 97.1376 211.409C98.9376 214.109 102.238 216.809 107.238 218.409C108.438 218.809 110.238 219.109 112.538 219.509C113.738 220.509 114.738 221.409 115.538 222.309Z" fill="#E0DFDA"/>
<path d="M99.7381 225.909C99.7381 225.909 100.938 225.209 101.238 226.809C101.538 228.309 102.438 233.209 104.638 234.309C106.838 235.409 126.538 238.309 126.538 238.309L151.938 241.409L152.138 242.109L110.038 239.909L98.338 234.309C98.238 234.309 98.0381 226.009 99.7381 225.909Z" fill="#A9AEB2"/>
<path d="M99.7375 225.91L104.138 220.31L116.338 222.41L117.838 226.31L120.138 232.51L115.938 237.41L100.338 236.71C100.438 236.61 98.0375 227.31 99.7375 225.91Z" fill="#A2B0B9"/>
<path d="M99.7375 225.91L104.138 220.31L116.338 222.41L117.838 226.31L120.138 232.51L115.938 237.41L100.338 236.71C100.438 236.61 98.0375 227.31 99.7375 225.91Z" fill="#A2B0B9"/>
<path d="M120.238 232.409L116.038 237.309L101.438 236.609H100.538C100.538 236.609 98.138 227.309 99.938 226.009L104.338 220.409L116.538 222.509L116.938 223.609L118.038 226.409L120.238 232.409Z" fill="#A2B0B9"/>
<path d="M120.237 232.409L116.037 237.309L101.437 236.609C100.837 234.009 99.7373 228.209 101.037 227.209L105.437 221.609L116.837 223.509L117.937 226.309L120.237 232.409Z" fill="#74899A"/>
<path d="M154.538 244.809L114.238 243.009C109.838 242.409 106.338 241.809 103.638 241.109C102.138 240.409 100.638 239.509 99.5376 238.309C97.0376 235.509 94.1375 223.609 94.8375 221.809C95.5375 220.009 96.1376 219.409 96.1376 219.409L97.8375 225.409L99.8375 225.709C99.8375 225.709 99.6376 234.709 103.738 236.309C107.838 238.009 152.138 241.809 152.138 241.809L154.538 244.809Z" fill="#E0DFDA"/>
<path d="M151.838 241.409C151.838 241.409 128.838 239.909 124.438 237.909C120.138 236.009 116.338 226.609 116.338 226.609L117.838 227.209L120.338 229.009H120.438L122.438 229.409C122.438 229.409 125.938 234.209 127.838 235.309C129.838 236.409 149.438 238.709 149.438 238.709L150.738 240.109L151.838 241.409Z" fill="#74899A"/>
<path d="M150.737 240.209C145.637 239.709 130.937 238.309 127.837 237.109C124.837 236.009 121.737 231.209 120.438 229.109L122.438 229.509C122.438 229.509 125.937 234.309 127.837 235.409C129.837 236.509 149.438 238.809 149.438 238.809L150.737 240.209Z" fill="#A2B0B9"/>
<path d="M148.138 237.309L145.038 233.809L125.038 230.009C125.038 230.009 127.838 234.509 130.938 235.209C134.038 235.809 148.138 237.309 148.138 237.309Z" fill="#A9AEB2"/>
<path d="M105.838 222.709L101.838 227.709L104.638 234.309L112.438 235.509L117.238 230.509L114.338 223.909L105.838 222.709Z" fill="#FBFAF6"/>
<path d="M111.338 224.909C111.338 224.909 115.538 229.109 113.038 232.809C116.138 229.409 115.838 226.109 111.338 224.909Z" fill="#E0DFDA"/>
<path d="M103.838 240.109C105.838 240.509 107.838 240.709 109.838 241.009C111.838 241.309 113.838 241.509 115.838 241.709C119.838 242.109 123.938 242.509 127.938 242.809C131.938 243.209 136.038 243.409 140.138 243.709L152.338 244.409L146.238 244.209L140.138 243.909C136.038 243.709 132.038 243.409 127.938 243.109C123.838 242.809 119.838 242.409 115.838 241.909C111.838 241.509 107.738 240.909 103.838 240.109Z" fill="#21292C"/>
<path d="M95.3375 210.31C95.3375 210.31 93.1376 234.31 96.9376 237.91C95.6376 232.11 95.3375 210.31 95.3375 210.31Z" fill="black"/>
<path d="M97.2373 214.81C98.2373 215.91 99.4373 216.71 100.737 217.51C102.037 218.21 103.337 218.81 104.837 219.21C106.237 219.61 107.737 219.81 109.137 220.11C110.637 220.41 112.037 220.71 113.537 221.01C112.037 220.81 110.637 220.71 109.137 220.41C107.637 220.21 106.237 220.01 104.737 219.61C103.337 219.21 101.937 218.61 100.637 217.81C99.3373 216.91 98.1373 216.01 97.2373 214.81Z" fill="black"/>
<path d="M320.137 245.709C320.337 246.109 322.337 245.909 338.137 245.209C348.437 244.709 356.437 243.909 362.637 243.109C367.037 242.509 370.537 241.909 373.237 241.209C377.937 240.109 380.537 239.109 381.837 238.509C381.937 238.409 381.937 238.309 381.937 238.209C384.537 232.909 381.437 206.909 381.437 206.909C381.337 207.609 381.137 208.309 380.837 209.109C380.537 209.909 380.137 210.609 379.637 211.409C379.237 213.809 378.237 217.809 375.837 219.009C373.337 220.309 366.137 221.709 362.537 222.309C361.237 222.509 360.437 222.709 360.437 222.709C360.437 222.709 359.437 224.709 356.637 226.109C351.037 229.109 331.137 232.209 331.137 232.209C331.137 232.209 319.937 245.309 320.137 245.709Z" fill="#FBFAF6"/>
<path d="M361.237 222.309C361.537 222.309 361.937 222.309 362.537 222.309C366.737 222.309 377.637 221.209 379.537 218.209C381.337 215.409 381.037 210.609 380.837 209.109C380.537 209.909 380.137 210.609 379.637 211.409C377.837 214.109 374.537 216.809 369.537 218.409C368.337 218.809 366.537 219.109 364.237 219.509C363.037 220.509 361.937 221.409 361.237 222.309Z" fill="#E0DFDA"/>
<path d="M376.937 225.909C376.937 225.909 375.737 225.209 375.437 226.809C375.137 228.309 374.237 233.209 372.037 234.309C369.837 235.409 350.137 238.309 350.137 238.309L324.737 241.409L324.537 242.109L366.637 239.909L378.337 234.309C378.437 234.309 378.737 226.009 376.937 225.909Z" fill="#A9AEB2"/>
<path d="M376.937 225.91L372.537 220.31L360.337 222.41L358.837 226.31L356.537 232.51L360.737 237.41L376.337 236.71C376.337 236.61 378.737 227.31 376.937 225.91Z" fill="#A2B0B9"/>
<path d="M376.937 225.91L372.537 220.31L360.337 222.41L358.837 226.31L356.537 232.51L360.737 237.41L376.337 236.71C376.337 236.61 378.737 227.31 376.937 225.91Z" fill="#A2B0B9"/>
<path d="M356.537 232.409L360.737 237.309L375.337 236.609H376.237C376.237 236.609 378.637 227.309 376.837 226.009L372.437 220.409L360.237 222.509L359.837 223.609L358.737 226.409L356.537 232.409Z" fill="#A2B0B9"/>
<path d="M356.537 232.409L360.737 237.309L375.337 236.609C375.937 234.009 377.037 228.209 375.737 227.209L371.337 221.609L359.937 223.509L358.837 226.309L356.537 232.409Z" fill="#74899A"/>
<path d="M322.237 244.809L362.537 243.009C366.937 242.409 370.437 241.809 373.137 241.109C374.637 240.409 376.137 239.509 377.237 238.309C379.737 235.509 382.637 223.609 381.937 221.809C381.237 220.009 380.637 219.409 380.637 219.409L378.937 225.409L376.937 225.709C376.937 225.709 377.137 234.709 373.037 236.309C368.937 238.009 324.637 241.809 324.637 241.809L322.237 244.809Z" fill="#E0DFDA"/>
<path d="M324.938 241.409C324.938 241.409 347.938 239.909 352.338 237.909C356.638 236.009 360.438 226.609 360.438 226.609L358.938 227.209L356.438 229.009H356.338L354.338 229.409C354.338 229.409 350.837 234.209 348.938 235.309C346.938 236.409 327.338 238.709 327.338 238.709L326.038 240.109L324.938 241.409Z" fill="#74899A"/>
<path d="M326.037 240.209C331.137 239.709 345.837 238.309 348.937 237.109C351.937 236.009 355.037 231.209 356.337 229.109L354.337 229.509C354.337 229.509 350.837 234.309 348.937 235.409C346.937 236.509 327.337 238.809 327.337 238.809L326.037 240.209Z" fill="#A2B0B9"/>
<path d="M328.638 237.309L331.738 233.809L351.738 230.009C351.738 230.009 348.938 234.509 345.838 235.209C342.738 235.809 328.638 237.309 328.638 237.309Z" fill="#A9AEB2"/>
<path d="M370.937 222.709L374.937 227.709L372.137 234.309L364.337 235.509L359.537 230.509L362.437 223.909L370.937 222.709Z" fill="#FBFAF6"/>
<path d="M365.437 224.909C365.437 224.909 361.237 229.109 363.737 232.809C360.637 229.409 360.937 226.109 365.437 224.909Z" fill="#E0DFDA"/>
<path d="M372.938 240.109C368.938 240.909 364.938 241.509 360.938 241.909C356.938 242.409 352.838 242.809 348.838 243.109C344.738 243.409 340.738 243.609 336.638 243.909L330.538 244.209L324.438 244.409L336.638 243.709C340.738 243.409 344.738 243.209 348.838 242.809C352.938 242.509 356.938 242.109 360.938 241.709C362.938 241.509 364.938 241.209 366.938 241.009C368.938 240.709 370.938 240.409 372.938 240.109Z" fill="#21292C"/>
<path d="M381.438 210.31C381.438 210.31 383.638 234.31 379.838 237.91C381.138 232.11 381.438 210.31 381.438 210.31Z" fill="black"/>
<path d="M379.538 214.81C378.638 216.01 377.438 216.91 376.238 217.71C374.938 218.51 373.538 219.11 372.138 219.51C370.738 219.91 369.238 220.11 367.738 220.31C366.238 220.51 364.838 220.71 363.338 220.91C364.738 220.61 366.238 220.31 367.738 220.01C369.238 219.71 370.638 219.61 372.038 219.11C373.438 218.71 374.838 218.21 376.138 217.41C377.338 216.71 378.538 215.91 379.538 214.81Z" fill="black"/>
<path d="M114.838 253.609C114.838 253.609 98.7385 258.909 96.9385 263.509C95.1385 268.109 91.7385 291.609 93.7385 298.209C87.6385 304.109 86.9385 298.509 86.9385 298.509L90.1385 270.509L93.4385 256.709C93.4385 256.709 100.138 254.909 101.038 254.709C101.838 254.309 114.838 253.609 114.838 253.609Z" fill="#B7B7B7"/>
<path d="M117.138 318.51C117.138 318.51 118.338 317.81 118.338 317.11C118.338 316.41 116.238 316.01 114.138 315.61C111.938 315.31 98.3376 313.61 94.3376 311.01C90.3376 308.41 91.2377 274.71 92.6377 269.21C94.0377 263.71 92.3377 259.01 100.538 257.41C108.838 255.81 116.738 253.21 116.738 253.21L114.038 252.01L94.8376 254.61C94.8376 254.61 90.5377 254.91 89.0377 259.01C87.5377 263.11 84.1377 293.61 84.1377 293.61L85.6377 312.31L101.038 316.81L117.138 318.51Z" fill="#141C1F"/>
<path d="M91.1381 293.909C91.1381 293.909 97.8381 295.309 99.8381 299.709C101.838 304.109 102.038 309.809 96.4381 312.609C90.3381 313.509 85.1381 308.809 85.1381 308.809L85.0381 298.109L91.1381 293.909Z" fill="#141C1F"/>
<path d="M100.638 303.009C100.638 303.609 100.538 304.109 100.438 304.709C99.6377 307.509 97.1377 309.609 93.9377 309.909C93.6377 309.909 93.4377 309.909 93.1377 309.909C88.9377 309.909 85.6377 306.809 85.6377 303.009C85.6377 299.209 89.0377 296.109 93.1377 296.109C97.3377 296.109 100.638 299.209 100.638 303.009Z" fill="#273033"/>
<path d="M100.538 303.509C100.538 303.909 100.538 304.309 100.438 304.609C99.6383 307.409 97.1383 309.509 93.9383 309.809C93.8383 309.809 93.7383 309.809 93.6383 309.809C89.8383 309.809 86.7383 307.009 86.7383 303.509C86.7383 300.009 89.8383 297.209 93.6383 297.209C97.4383 297.209 100.538 300.009 100.538 303.509Z" fill="#52595B"/>
<path d="M92.4379 307.709C94.9784 307.709 97.0379 305.739 97.0379 303.309C97.0379 300.879 94.9784 298.909 92.4379 298.909C89.8974 298.909 87.8379 300.879 87.8379 303.309C87.8379 305.739 89.8974 307.709 92.4379 307.709Z" fill="#656E70"/>
<path d="M121.538 251.209C121.538 251.209 100.238 251.509 93.2381 253.109C86.2381 254.709 85.5381 268.109 84.7381 274.509C83.9381 280.909 81.7381 306.209 83.4381 312.209C84.3381 315.409 87.238 316.909 90.338 317.509C95.538 318.609 100.938 318.809 106.138 319.209C109.338 319.409 113.138 319.909 116.238 319.009C116.238 319.009 116.238 319.009 116.338 319.009C117.738 318.509 117.538 318.109 117.538 318.109C117.538 318.109 116.838 316.909 115.738 316.609C114.638 316.309 95.138 316.009 89.338 312.909C86.338 311.309 86.0381 306.809 85.7381 303.909C84.9381 295.409 85.9381 286.909 87.0381 278.409C87.7381 273.409 88.3381 268.409 89.4381 263.409C90.0381 260.709 90.7381 258.409 93.2381 256.809C95.3381 255.509 97.938 255.209 100.338 255.009C100.538 255.009 100.838 255.009 101.038 254.909C107.438 254.509 114.838 253.909 118.138 253.109C121.438 252.309 121.538 251.209 121.538 251.209Z" fill="white"/>
<path opacity="0.5" d="M117.138 318.309C117.338 318.209 117.538 318.209 117.638 318.109C117.638 318.309 117.438 318.609 116.438 318.909C116.438 318.909 116.438 318.909 116.338 318.909C113.238 319.809 109.338 319.309 106.238 319.109C100.938 318.809 95.538 318.609 90.438 317.409C87.338 316.709 84.438 315.309 83.538 312.109C81.838 306.109 83.9379 280.809 84.8379 274.409C85.5379 268.909 86.2379 258.009 90.8379 254.209C86.7379 258.509 86.138 268.509 85.438 273.809C84.638 280.209 82.438 305.509 84.138 311.509C85.038 314.709 87.938 316.209 91.038 316.809C96.238 317.909 101.638 318.109 106.838 318.509C110.038 318.709 113.938 319.209 117.138 318.309Z" fill="#141C1F"/>
<path d="M121.438 251.51C121.138 251.91 120.438 252.61 118.338 253.11C115.038 253.91 107.738 254.51 101.238 254.91C101.038 254.91 100.738 254.91 100.538 255.01C98.1383 255.21 95.4383 255.41 93.4383 256.81C93.1383 257.01 92.9383 257.11 92.7383 257.31C93.1383 256.91 93.5383 256.51 94.1383 256.21C96.2383 254.91 98.8383 254.61 101.238 254.41C101.438 254.41 101.738 254.41 101.938 254.31C108.338 253.91 115.738 253.31 119.038 252.51C120.238 252.21 120.938 251.81 121.438 251.51Z" fill="#141C1F"/>
<path opacity="0.5" d="M122.238 250.609C122.238 250.609 122.238 251.009 121.438 251.509C121.538 251.309 121.538 251.209 121.538 251.209C121.538 251.209 100.238 251.509 93.2383 253.109C92.3383 253.309 91.5383 253.709 90.7383 254.309C91.6383 253.409 92.6383 252.709 93.8383 252.509C100.938 250.909 122.238 250.609 122.238 250.609Z" fill="#141C1F"/>
<path d="M92.4385 305.209C93.543 305.209 94.4385 304.359 94.4385 303.309C94.4385 302.26 93.543 301.409 92.4385 301.409C91.3339 301.409 90.4385 302.26 90.4385 303.309C90.4385 304.359 91.3339 305.209 92.4385 305.209Z" fill="white"/>
<path opacity="0.3" d="M97.3381 302.609C97.3381 302.609 98.3381 307.209 93.0381 308.609C98.4381 309.309 99.9381 304.809 97.3381 302.609Z" fill="white"/>
<path d="M362.438 253.609C362.438 253.609 378.538 258.909 380.338 263.509C382.138 268.109 385.538 291.609 383.538 298.209C389.638 304.109 390.338 298.509 390.338 298.509L387.138 270.509L383.838 256.709C383.838 256.709 377.138 254.909 376.238 254.709C375.338 254.509 362.438 253.609 362.438 253.609Z" fill="#B7B7B7"/>
<path d="M360.138 318.51C360.138 318.51 358.938 317.81 358.938 317.11C358.938 316.41 361.038 316.01 363.138 315.61C365.338 315.31 378.938 313.61 382.938 311.01C386.938 308.41 386.038 274.71 384.638 269.21C383.238 263.71 384.938 259.01 376.738 257.41C368.438 255.81 360.538 253.21 360.538 253.21L363.238 252.01L382.438 254.61C382.438 254.61 386.738 254.91 388.238 259.01C389.738 263.11 393.138 293.61 393.138 293.61L391.638 312.31L376.238 316.81L360.138 318.51Z" fill="#141C1F"/>
<path d="M386.138 293.909C386.138 293.909 379.438 295.309 377.438 299.709C375.438 304.109 375.238 309.809 380.838 312.609C386.938 313.509 392.138 308.809 392.138 308.809L392.238 298.109L386.138 293.909Z" fill="#141C1F"/>
<path d="M376.638 303.009C376.638 303.609 376.738 304.109 376.838 304.709C377.638 307.509 380.138 309.609 383.338 309.909C383.638 309.909 383.838 309.909 384.138 309.909C388.338 309.909 391.638 306.809 391.638 303.009C391.638 299.209 388.238 296.109 384.138 296.109C379.938 296.109 376.638 299.209 376.638 303.009Z" fill="#273033"/>
<path d="M376.738 303.509C376.738 303.909 376.738 304.309 376.838 304.609C377.638 307.409 380.138 309.509 383.338 309.809C383.438 309.809 383.538 309.809 383.638 309.809C387.438 309.809 390.538 307.009 390.538 303.509C390.538 300.009 387.438 297.209 383.638 297.209C379.838 297.209 376.738 300.009 376.738 303.509Z" fill="#52595B"/>
<path d="M384.838 307.709C387.379 307.709 389.438 305.739 389.438 303.309C389.438 300.879 387.379 298.909 384.838 298.909C382.298 298.909 380.238 300.879 380.238 303.309C380.238 305.739 382.298 307.709 384.838 307.709Z" fill="#656E70"/>
<path d="M355.738 251.209C355.738 251.209 377.038 251.509 384.038 253.109C391.038 254.709 391.738 268.109 392.538 274.509C393.338 280.909 395.538 306.209 393.838 312.209C392.938 315.409 390.038 316.909 386.938 317.509C381.738 318.609 376.338 318.809 371.138 319.209C367.938 319.409 364.138 319.909 361.038 319.009C361.038 319.009 361.038 319.009 360.938 319.009C359.538 318.509 359.738 318.109 359.738 318.109C359.738 318.109 360.438 316.909 361.538 316.609C362.638 316.309 382.138 316.009 387.938 312.909C390.938 311.309 391.238 306.809 391.538 303.909C392.338 295.409 391.338 286.909 390.238 278.409C389.538 273.409 388.938 268.409 387.838 263.409C387.238 260.709 386.538 258.409 384.038 256.809C381.938 255.509 379.338 255.209 376.938 255.009C376.738 255.009 376.438 255.009 376.238 254.909C369.838 254.509 362.438 253.909 359.138 253.109C355.838 252.309 355.738 251.209 355.738 251.209Z" fill="white"/>
<path opacity="0.5" d="M360.138 318.309C359.938 318.209 359.738 318.209 359.638 318.109C359.638 318.309 359.838 318.609 360.838 318.909C360.838 318.909 360.838 318.909 360.938 318.909C364.038 319.809 367.938 319.309 371.038 319.109C376.338 318.809 381.738 318.609 386.838 317.409C389.938 316.709 392.838 315.309 393.738 312.109C395.438 306.109 393.338 280.809 392.438 274.409C391.738 268.909 391.038 258.009 386.438 254.209C390.538 258.509 391.138 268.509 391.838 273.809C392.638 280.209 394.838 305.509 393.138 311.509C392.238 314.709 389.338 316.209 386.238 316.809C381.038 317.909 375.638 318.109 370.438 318.509C367.138 318.709 363.338 319.209 360.138 318.309Z" fill="#141C1F"/>
<path d="M355.838 251.51C356.138 251.91 356.838 252.61 358.938 253.11C362.238 253.91 369.538 254.51 376.038 254.91C376.238 254.91 376.538 254.91 376.738 255.01C379.138 255.21 381.838 255.41 383.838 256.81C384.138 257.01 384.338 257.11 384.538 257.31C384.138 256.91 383.738 256.51 383.138 256.21C381.038 254.91 378.438 254.61 376.038 254.41C375.838 254.41 375.538 254.41 375.338 254.31C368.938 253.91 361.538 253.31 358.238 252.51C357.038 252.21 356.338 251.81 355.838 251.51Z" fill="#141C1F"/>
<path opacity="0.5" d="M355.038 250.609C355.038 250.609 355.038 251.009 355.838 251.509C355.738 251.309 355.738 251.209 355.738 251.209C355.738 251.209 377.038 251.509 384.038 253.109C384.938 253.309 385.738 253.709 386.538 254.309C385.638 253.409 384.638 252.709 383.438 252.509C376.338 250.909 355.038 250.609 355.038 250.609Z" fill="#141C1F"/>
<path d="M384.838 305.209C385.942 305.209 386.838 304.359 386.838 303.309C386.838 302.26 385.942 301.409 384.838 301.409C383.733 301.409 382.838 302.26 382.838 303.309C382.838 304.359 383.733 305.209 384.838 305.209Z" fill="white"/>
<path opacity="0.3" d="M379.938 302.609C379.938 302.609 378.938 307.209 384.238 308.609C378.838 309.309 377.338 304.809 379.938 302.609Z" fill="white"/>
<path opacity="0.1" d="M308.738 182.109L302.638 182.509C274.138 182.909 242.838 182.709 239.338 182.709H239.138C234.738 182.709 137.338 183.409 128.238 180.009C118.838 176.509 120.138 168.209 132.938 149.709C142.138 136.509 146.238 129.509 152.938 124.409C150.738 131.509 142.438 161.309 158.338 167.809C176.238 175.109 308.738 182.109 308.738 182.109Z" fill="white"/>
<path opacity="0.1" d="M357.238 171.609C354.538 174.709 351.138 177.809 346.938 180.709C346.438 181.109 345.938 181.409 345.338 181.709C345.238 181.409 345.238 181.109 345.138 180.809C335.838 138.609 209.338 125.509 209.338 125.509C210.138 123.309 212.838 121.309 216.838 119.509L240.138 119.309H240.338L263.938 119.509L313.738 120.809L323.338 122.009C331.938 127.309 335.938 134.209 346.438 149.409C353.338 159.709 356.938 166.709 357.238 171.609Z" fill="white"/>
<path d="M345.138 149.609C334.638 134.409 330.638 127.509 322.038 122.209L312.438 121.009L262.638 119.709L239.038 119.509H238.838L215.238 119.709L165.438 121.009L155.438 122.309C146.838 127.609 142.938 134.509 132.438 149.709C119.638 168.209 118.438 176.609 127.738 180.009C136.838 183.409 234.238 182.709 238.638 182.709H238.738C245.038 182.709 340.438 183.409 349.538 180.009C359.138 176.509 357.938 168.109 345.138 149.609ZM347.338 175.109C340.038 177.709 251.138 176.209 239.638 176.009C239.638 176.009 239.438 176.009 239.038 176.009C238.638 176.009 238.438 176.009 238.438 176.009C226.938 176.209 138.038 177.609 130.738 175.109C122.938 172.409 132.438 154.309 150.338 131.309C175.338 129.109 198.338 129.409 198.338 129.409C198.338 129.409 201.538 131.409 203.438 131.609C205.338 131.809 226.838 131.409 226.838 131.409C226.838 131.409 228.138 135.409 231.738 135.409C234.738 135.409 237.838 135.409 238.838 135.409C238.838 135.409 238.938 135.409 239.038 135.409C239.138 135.409 239.238 135.409 239.238 135.409C240.238 135.409 243.338 135.409 246.338 135.409C250.038 135.409 251.238 131.409 251.238 131.409C251.238 131.409 272.838 131.809 274.638 131.609C276.538 131.409 279.738 129.409 279.738 129.409C279.738 129.409 302.738 129.109 327.738 131.309C345.638 154.309 355.138 172.309 347.338 175.109Z" fill="#161616"/>
<path opacity="0.2" d="M161.738 140.309C161.738 140.309 182.538 156.809 287.838 171.709Z" fill="#9E9E9E"/>
<path d="M396.437 305.909C395.437 313.209 396.037 318.309 397.337 320.709C398.637 323.009 394.538 326.709 392.138 327.109C390.138 327.409 361.137 326.009 352.437 325.609C350.937 325.509 350.038 325.509 350.038 325.509C350.038 325.509 349.638 325.309 349.038 324.909C348.638 324.709 348.037 324.409 347.437 324.109C344.337 322.609 339.138 320.209 334.538 319.609C334.338 319.609 334.138 319.609 334.038 319.509L238.738 319.309H237.937L142.138 319.409C137.438 319.909 131.937 322.409 128.737 324.009C128.137 324.309 127.538 324.609 127.138 324.809C126.538 325.109 126.138 325.409 126.138 325.409C126.138 325.409 125.237 325.409 123.737 325.509C115.037 325.909 86.0375 327.309 84.0375 327.009C81.7375 326.609 77.5375 322.909 78.8375 320.609C80.1375 318.309 80.7375 313.209 79.7375 305.809C78.7375 298.509 78.7375 299.109 77.3375 282.809C76.5375 274.109 76.4375 244.509 77.9375 230.909C78.2375 227.909 78.6375 225.709 79.1375 224.709C81.8375 218.709 94.4375 206.209 96.2375 203.209C98.5375 201.709 105.038 187.609 117.138 164.509C129.238 141.409 146.938 121.909 150.638 119.909C154.338 117.909 158.738 117.809 161.138 118.709C167.338 117.409 173.537 116.609 179.837 116.009C187.837 115.209 195.938 114.609 203.938 114.109C211.038 113.709 218.138 113.409 225.238 113.209C233.038 113.009 240.738 112.909 248.538 113.109C255.438 113.309 262.338 113.609 269.238 113.909C277.338 114.309 285.538 114.909 293.638 115.609C300.738 116.309 307.937 117.109 314.937 118.609C317.337 117.709 321.737 117.809 325.437 119.809C329.137 121.809 346.837 141.309 358.937 164.409C371.037 187.509 377.437 201.509 379.837 203.109C381.637 206.109 394.137 218.609 396.937 224.609C397.437 225.709 397.838 227.909 398.138 230.809C399.638 244.409 399.537 274.009 398.737 282.709C397.437 299.209 397.437 298.609 396.437 305.909Z" stroke="black" stroke-width="1.594" stroke-miterlimit="10" stroke-linecap="round" stroke-linejoin="round"/>
<path d="M238.038 252.309C245.494 252.309 251.538 247.205 251.538 240.909C251.538 234.613 245.494 229.509 238.038 229.509C230.582 229.509 224.538 234.613 224.538 240.909C224.538 247.205 230.582 252.309 238.038 252.309Z" fill="black"/>
<path d="M238.038 252.009C245.328 252.009 251.238 247.039 251.238 240.909C251.238 234.778 245.328 229.809 238.038 229.809C230.748 229.809 224.838 234.778 224.838 240.909C224.838 247.039 230.748 252.009 238.038 252.009Z" fill="#EEEEEE"/>
<path d="M238.038 251.409C244.942 251.409 250.538 246.708 250.538 240.909C250.538 235.11 244.942 230.409 238.038 230.409C231.135 230.409 225.538 235.11 225.538 240.909C225.538 246.708 231.135 251.409 238.038 251.409Z" fill="#0B0C10"/>
<path d="M248.538 238.308C247.938 237.608 247.138 237.008 246.038 236.408C243.938 235.308 241.038 234.708 238.038 234.708C235.038 234.708 232.138 235.308 230.038 236.408C228.938 236.908 228.138 237.608 227.538 238.308C226.938 239.008 226.638 239.808 226.638 240.708C226.638 241.608 226.938 242.308 227.538 243.108C228.138 243.808 228.938 244.408 230.038 245.008C232.138 246.108 235.038 246.708 238.038 246.708C241.038 246.708 243.938 246.108 246.038 245.008C247.138 244.508 247.938 243.808 248.538 243.108C249.138 242.408 249.438 241.608 249.438 240.708C249.438 239.808 249.138 239.008 248.538 238.308ZM245.138 237.308C245.538 237.508 245.938 237.808 246.338 238.008C245.138 238.808 243.438 239.308 241.538 239.608C241.438 238.208 241.038 236.808 240.238 236.008C242.038 236.108 243.738 236.608 245.138 237.308ZM237.438 237.208C237.838 236.308 238.338 236.108 238.338 236.108C238.438 236.108 238.838 236.308 239.238 237.208C239.538 237.908 239.738 238.808 239.838 239.708C239.438 239.708 239.138 239.708 238.738 239.708C238.038 239.708 237.438 239.708 236.738 239.608C236.938 238.708 237.138 237.908 237.438 237.208ZM230.938 237.308C232.538 236.508 234.438 236.008 236.638 235.908C235.938 236.708 235.438 238.108 235.338 239.508C233.338 239.108 231.638 238.408 230.638 237.508C230.738 237.408 230.838 237.308 230.938 237.308ZM230.938 244.008C229.138 243.108 228.138 241.908 228.138 240.608C228.138 239.708 228.638 238.908 229.538 238.108C230.138 238.608 230.838 239.008 231.738 239.408C232.738 239.808 233.938 240.208 235.238 240.408V240.508C235.238 242.408 235.738 244.308 236.738 245.308C234.538 245.308 232.538 244.808 230.938 244.008ZM239.338 244.008C238.938 244.908 238.438 245.108 238.438 245.108C238.338 245.108 237.938 244.908 237.538 244.008C237.138 243.108 236.938 242.008 236.838 240.708C237.538 240.808 238.238 240.808 238.838 240.808C239.238 240.808 239.638 240.808 240.038 240.808C239.938 242.008 239.738 243.108 239.338 244.008ZM245.138 244.008C243.738 244.708 242.038 245.208 240.138 245.408C241.138 244.408 241.538 242.508 241.538 240.708C243.838 240.408 245.838 239.808 247.238 238.908C247.738 239.508 247.938 240.108 247.938 240.708C247.938 241.908 246.938 243.108 245.138 244.008Z" fill="white"/>
<path d="M249.338 240.008C249.138 238.808 248.238 237.908 247.338 237.308C246.438 236.608 245.338 236.108 244.238 235.808C242.038 235.108 239.738 234.908 237.338 234.908C235.038 235.008 232.738 235.308 230.538 236.208C229.438 236.708 228.438 237.308 227.638 238.108C226.838 238.908 226.338 240.108 226.638 241.208C226.838 242.308 227.738 243.208 228.638 243.908C229.538 244.608 230.638 245.008 231.738 245.408C233.938 246.108 236.238 246.408 238.538 246.308C240.838 246.208 243.138 245.908 245.338 245.008C246.438 244.508 247.438 244.008 248.238 243.108C249.138 242.408 249.638 241.208 249.338 240.008ZM249.438 240.008C249.738 241.208 249.238 242.408 248.438 243.208C247.638 244.108 246.638 244.708 245.538 245.208C243.438 246.208 241.038 246.608 238.738 246.608C236.438 246.708 234.038 246.408 231.838 245.608C230.738 245.208 229.638 244.708 228.738 244.008C227.838 243.308 226.938 242.408 226.738 241.208C226.438 240.008 227.038 238.808 227.838 238.008C228.638 237.108 229.638 236.508 230.738 236.108C232.838 235.108 235.238 234.708 237.538 234.608C239.838 234.508 242.238 234.808 244.438 235.608C245.538 236.008 246.638 236.508 247.538 237.208C248.338 237.908 249.138 238.808 249.438 240.008Z" fill="black"/>
<path d="M245.138 237.309C245.538 237.509 245.938 237.809 246.338 238.009H246.438L246.338 238.109C245.638 238.609 244.838 239.009 244.038 239.209C243.238 239.409 242.338 239.509 241.538 239.709C241.438 239.109 241.338 238.409 241.138 237.809C240.938 237.209 240.638 236.609 240.238 236.109L240.038 235.809H240.338C241.238 235.909 242.038 236.009 242.838 236.309C243.538 236.509 244.338 236.909 245.138 237.309ZM245.138 237.309C244.338 236.909 243.538 236.709 242.738 236.509C241.938 236.309 241.038 236.209 240.238 236.109L240.338 235.909C240.738 236.409 241.038 237.109 241.238 237.709C241.438 238.309 241.538 239.009 241.538 239.609H241.438C242.238 239.509 243.138 239.309 243.938 239.009C244.738 238.709 245.538 238.409 246.238 238.009V238.109C245.838 237.809 245.538 237.509 245.138 237.309Z" fill="black"/>
<path d="M241.538 240.608C243.538 240.208 245.438 239.708 247.238 238.708H247.338L247.438 238.808C248.038 239.608 248.338 240.708 247.938 241.608C247.538 242.508 246.738 243.208 245.938 243.708C244.238 244.708 242.238 245.308 240.338 245.508H240.038L240.238 245.208C240.738 244.608 241.138 243.808 241.338 243.008C241.338 242.308 241.438 241.508 241.538 240.608ZM241.538 240.608C241.538 241.408 241.538 242.308 241.338 243.108C241.138 243.908 240.838 244.808 240.238 245.408L240.138 245.208C242.038 245.008 244.038 244.508 245.738 243.608C246.538 243.108 247.338 242.508 247.738 241.608C248.138 240.708 247.838 239.608 247.138 238.908H247.238C246.338 239.408 245.438 239.808 244.438 240.108C243.538 240.408 242.538 240.608 241.538 240.608Z" fill="black"/>
<path d="M237.438 237.208C237.638 236.808 237.838 236.308 238.238 236.108H238.338C238.438 236.108 238.438 236.108 238.438 236.108C238.538 236.108 238.538 236.208 238.638 236.208C238.738 236.308 238.838 236.408 238.938 236.408C239.138 236.608 239.238 236.808 239.338 237.008C239.738 237.908 239.838 238.808 240.038 239.708V239.808H239.938C239.438 239.808 238.938 239.908 238.338 239.908C237.838 239.908 237.338 239.908 236.738 239.808H236.638V239.708C236.738 238.808 237.038 237.908 237.438 237.208ZM237.438 237.208C237.038 238.008 237.038 238.808 236.938 239.708L236.838 239.608C237.338 239.608 237.838 239.608 238.438 239.708C238.938 239.708 239.438 239.708 240.038 239.708L239.938 239.808C239.938 238.908 239.638 237.908 239.238 237.208C239.138 237.008 239.038 236.808 238.838 236.608C238.738 236.508 238.738 236.408 238.638 236.408L238.538 236.308C238.438 236.308 238.538 236.308 238.438 236.308C237.938 236.408 237.638 236.808 237.438 237.208Z" fill="black"/>
<path d="M238.838 240.808C239.238 240.808 239.638 240.808 240.038 240.708H240.138V240.808C240.138 241.608 240.138 242.408 239.838 243.208C239.738 243.608 239.538 244.008 239.338 244.308C239.138 244.608 238.938 245.008 238.438 245.208C238.038 245.008 237.738 244.708 237.538 244.308C237.338 243.908 237.138 243.608 237.038 243.208C236.838 242.408 236.738 241.608 236.738 240.808V240.708H236.838C237.438 240.708 238.138 240.708 238.838 240.808ZM238.838 240.808C238.138 240.808 237.438 240.808 236.738 240.808L236.838 240.708C236.838 241.508 236.938 242.308 237.138 243.108C237.238 243.508 237.338 243.908 237.538 244.208C237.738 244.508 237.938 244.908 238.238 245.108C238.538 245.008 238.838 244.608 239.038 244.308C239.238 243.908 239.338 243.608 239.438 243.208C239.638 242.408 239.738 241.608 239.838 240.808L239.938 240.908C239.638 240.808 239.238 240.808 238.838 240.808Z" fill="black"/>
<path d="M230.938 237.309C231.838 236.909 232.738 236.409 233.738 236.209C234.738 236.009 235.738 235.909 236.638 235.809H236.738L236.638 235.909C236.238 236.409 235.938 237.009 235.738 237.609C235.538 238.209 235.438 238.809 235.438 239.509V239.609H235.338C234.438 239.509 233.638 239.209 232.838 238.909C232.038 238.609 231.338 238.109 230.638 237.509L230.938 237.309ZM230.938 237.309L230.638 237.509C231.238 238.109 232.138 238.409 232.938 238.709C233.738 239.009 234.538 239.209 235.438 239.409L235.238 239.509C235.438 238.209 235.838 236.909 236.638 235.909V236.009C235.638 236.109 234.738 236.309 233.738 236.509C232.738 236.609 231.838 236.809 230.938 237.309Z" fill="black"/>
<path d="M230.937 244.008C230.337 243.708 229.837 243.408 229.337 243.008C228.837 242.608 228.437 242.108 228.137 241.508C227.937 240.908 227.937 240.208 228.237 239.608C228.537 239.008 228.937 238.508 229.437 238.108H229.537H229.637C230.437 238.808 231.337 239.308 232.337 239.608C233.337 240.008 234.337 240.208 235.337 240.308H235.437V240.408C235.437 241.308 235.537 242.108 235.737 243.008C235.937 243.808 236.337 244.608 236.837 245.308L237.037 245.608H236.737C234.637 245.408 232.737 244.908 230.937 244.008ZM230.937 244.008C232.737 244.908 234.737 245.208 236.737 245.308L236.637 245.508C236.037 244.808 235.637 244.008 235.437 243.108C235.237 242.208 235.137 241.308 235.137 240.508L235.237 240.608C234.237 240.408 233.237 240.108 232.237 239.808C231.237 239.408 230.337 239.008 229.437 238.308H229.537C229.037 238.708 228.637 239.208 228.437 239.708C228.237 240.308 228.137 240.908 228.337 241.508C228.737 242.608 229.837 243.408 230.937 244.008Z" fill="black"/>
<path opacity="0.3" d="M249.438 240.609C249.438 241.409 249.138 242.209 248.538 243.009C247.938 243.709 247.138 244.309 246.038 244.909C243.938 246.009 241.038 246.609 238.038 246.609C235.638 246.609 233.438 246.209 231.538 245.509C234.538 246.009 245.738 247.509 249.438 240.009C249.438 240.209 249.438 240.409 249.438 240.609Z" fill="black"/>
<path opacity="0.3" d="M242.338 240.308C239.638 240.808 236.738 240.808 235.238 240.508C233.938 240.308 232.738 239.908 231.738 239.508C230.838 239.108 230.138 238.708 229.538 238.208C229.738 238.308 234.638 241.208 242.338 240.308Z" fill="black"/>
<path opacity="0.3" d="M237.338 234.808C237.338 234.808 244.338 234.608 247.938 237.908C245.038 236.208 241.838 235.208 237.338 234.808Z" fill="black"/>
<defs>
<linearGradient id="paint0_linear_335_3096" x1="136.474" y1="290.249" x2="87.0938" y2="290.249" gradientUnits="userSpaceOnUse">
<stop stop-color="white" stop-opacity="0"/>
<stop offset="0.1379" stop-color="#DDDDDD" stop-opacity="0.183"/>
<stop offset="0.326" stop-color="#B4B4B4" stop-opacity="0.4328"/>
<stop offset="0.4979" stop-color="#979797" stop-opacity="0.661"/>
<stop offset="0.646" stop-color="#858585" stop-opacity="0.8575"/>
<stop offset="0.7533" stop-color="#7F7F7F"/>
</linearGradient>
<linearGradient id="paint1_linear_335_3096" x1="339.686" y1="290.249" x2="389.066" y2="290.249" gradientUnits="userSpaceOnUse">
<stop stop-color="white" stop-opacity="0"/>
<stop offset="0.1379" stop-color="#DDDDDD" stop-opacity="0.183"/>
<stop offset="0.326" stop-color="#B4B4B4" stop-opacity="0.4328"/>
<stop offset="0.4979" stop-color="#979797" stop-opacity="0.661"/>
<stop offset="0.646" stop-color="#858585" stop-opacity="0.8575"/>
<stop offset="0.7533" stop-color="#7F7F7F"/>
</linearGradient>
<linearGradient id="paint2_linear_335_3096" x1="126.515" y1="276.201" x2="73.9593" y2="279.804" gradientUnits="userSpaceOnUse">
<stop stop-color="white" stop-opacity="0"/>
<stop offset="0.2271" stop-color="#FCFCFC" stop-opacity="0.261"/>
<stop offset="0.3762" stop-color="#F4F4F4" stop-opacity="0.4323"/>
<stop offset="0.5029" stop-color="#E5E5E5" stop-opacity="0.5778"/>
<stop offset="0.6169" stop-color="#CFCFCF" stop-opacity="0.7089"/>
<stop offset="0.7226" stop-color="#B4B4B4" stop-opacity="0.8303"/>
<stop offset="0.8207" stop-color="#939393" stop-opacity="0.9431"/>
<stop offset="0.8702" stop-color="#7F7F7F"/>
</linearGradient>
<linearGradient id="paint3_linear_335_3096" x1="344.332" y1="278.641" x2="399.155" y2="278.641" gradientUnits="userSpaceOnUse">
<stop offset="0.5206" stop-color="white" stop-opacity="0"/>
<stop offset="0.6362" stop-color="#FCFCFC" stop-opacity="0.261"/>
<stop offset="0.7121" stop-color="#F4F4F4" stop-opacity="0.4323"/>
<stop offset="0.7765" stop-color="#E5E5E5" stop-opacity="0.5778"/>
<stop offset="0.8346" stop-color="#CFCFCF" stop-opacity="0.7089"/>
<stop offset="0.8884" stop-color="#B4B4B4" stop-opacity="0.8303"/>
<stop offset="0.9383" stop-color="#939393" stop-opacity="0.9431"/>
<stop offset="0.9635" stop-color="#7F7F7F"/>
</linearGradient>
<linearGradient id="paint4_linear_335_3096" x1="129.274" y1="218.723" x2="129.274" y2="183.01" gradientUnits="userSpaceOnUse">
<stop stop-color="white" stop-opacity="0"/>
<stop offset="0.1379" stop-color="#DDDDDD" stop-opacity="0.183"/>
<stop offset="0.326" stop-color="#B4B4B4" stop-opacity="0.4328"/>
<stop offset="0.4979" stop-color="#979797" stop-opacity="0.661"/>
<stop offset="0.646" stop-color="#858585" stop-opacity="0.8575"/>
<stop offset="0.7533" stop-color="#7F7F7F"/>
</linearGradient>
<linearGradient id="paint5_linear_335_3096" x1="346.887" y1="218.723" x2="346.887" y2="183.01" gradientUnits="userSpaceOnUse">
<stop stop-color="white" stop-opacity="0"/>
<stop offset="0.1379" stop-color="#DDDDDD" stop-opacity="0.183"/>
<stop offset="0.326" stop-color="#B4B4B4" stop-opacity="0.4328"/>
<stop offset="0.4979" stop-color="#979797" stop-opacity="0.661"/>
<stop offset="0.646" stop-color="#858585" stop-opacity="0.8575"/>
<stop offset="0.7533" stop-color="#7F7F7F"/>
</linearGradient>
</defs>
</svg>
